<?xml version="1.0" encoding="utf-8"?>
<!-- Generator: Adobe Illustrator 26.3.0, SVG Export Plug-In . SVG Version: 6.00 Build 0)  -->
<svg version="1.1" id="Capa_1" xmlns="http://www.w3.org/2000/svg" xmlns:xlink="http://www.w3.org/1999/xlink" x="0px" y="0px"
	 viewBox="0 0 500 500" style="enable-background:new 0 0 500 500;" xml:space="preserve">
<style type="text/css">
	.st0{fill:#FBAF18;}
</style>
<g>
	<path class="st0" d="M489,101.8c0-4.3-0.3-8.7-1-13c-3.1-18.9-11.6-35.1-25.6-48.2c-16-14.9-35-22.7-56.9-22.8
		c-51.7-0.1-103.3,0-155,0c-51.8,0-103.5,0-155.2,0c-5.8,0-11.6,0.6-17.3,1.9c-38.6,8.6-66.1,42.7-66.1,82.3c0,98.9,0,197.8,0,296.6
		c0,5,0.4,9.9,1.3,14.8c3.4,18.4,11.8,34.1,25.5,46.9c16,14.8,34.9,22.7,56.7,22.7c103.4,0.1,206.8,0.1,310.2,0.1
		c5.8,0,11.4-0.6,17-1.9c16.5-3.6,30.7-11.4,42.4-23.5c15.7-16.2,24-35.7,24-58.2C489.1,300.2,489.1,201,489,101.8z M294.3,350.8
		c-16.4,0-32.8-0.1-49.2,0.1c-3,0-4.4-1-5.2-3.9c-4.8-16.3-9.8-32.6-14.6-48.9c-0.7-2.3-1.7-3-4.1-3c-17.2,0.1-34.4,0.1-51.6,0
		c-2.1,0-2.9,0.6-3.5,2.7c-4.4,16.3-9,32.6-13.5,48.9c-1.1,3.8-1.5,4.1-5.5,4.1c-15.6,0-31.2,0-46.7,0c-4.8,0-5.8-1.3-4.4-5.8
		c21.7-70.9,43.3-141.9,65-212.8c1.2-4,1.7-4.3,6-4.3c9.9,0,19.9,0,29.8,0c10.1,0,20.2,0.1,30.3-0.1c3,0,4.4,1.1,5.3,3.9
		c22,71.1,44.1,142.2,66.1,213.4C299.8,349.5,298.9,350.8,294.3,350.8z M373.4,345.8c0,4.4-0.6,5-5.1,5c-15,0-30,0-45.1,0
		c-4.1,0-4.8-0.7-4.8-4.8c0-51.3,0-102.5,0-153.8c0-4,0.9-4.8,4.8-4.8c15.1,0,30.2,0,45.4,0c3.9,0,4.8,0.9,4.8,4.9
		c0,25.6,0,51.2,0,76.8C373.4,294.6,373.4,320.2,373.4,345.8z M375.1,150.7c-1.3,4.5-2.6,9-5.7,12.8c-11.8,14.9-41.2,15.4-50-5.7
		c-6.6-15.9,0.8-37.1,24-38.7c13.5-0.9,24.4,5.2,29.1,16c1.1,2.5,1.7,5.3,2.6,8C375.1,145.6,375.1,148.2,375.1,150.7z"/>
	<path class="st0" d="M175.9,252.3c13.2,0,26.3,0,39.4,0c-6.9-24.1-13.7-48-20.4-71.3C188.7,204.3,182.3,228.2,175.9,252.3z"/>
</g>
</svg>
