<?xml version="1.0" encoding="utf-8"?>
<!-- Generator: Adobe Illustrator 26.3.0, SVG Export Plug-In . SVG Version: 6.00 Build 0)  -->
<svg version="1.1" id="Capa_1" xmlns="http://www.w3.org/2000/svg" xmlns:xlink="http://www.w3.org/1999/xlink" x="0px" y="0px"
	 viewBox="0 0 500 500" style="enable-background:new 0 0 500 500;" xml:space="preserve">
<style type="text/css">
	.st0{fill:#FBAF18;}
</style>
<g>
	<path class="st0" d="M248.4,497c-0.7-0.6-1.6-0.8-2.5-1c-2.9-0.8-5.8-1.6-8.7-2.5c-4.4-1.2-8.7-2.4-13.1-3.6
		c-5.5-1.5-11.1-3.1-16.6-4.6c-4.4-1.2-8.7-2.4-13.1-3.6c-4.9-1.4-9.9-2.8-14.8-4.1c-5.1-1.4-10.2-2.8-15.3-4.2
		c-5.8-1.6-11.6-3.2-17.4-4.9c-5.1-1.4-10.2-2.8-15.3-4.2c-4.1-1.1-8.3-2.3-12.4-3.5c-4-1.1-8-2.2-12.1-3.4
		c-0.2-0.6-0.5-1.2-0.6-1.9c-0.2-2.1-0.3-4.2-0.5-6.3c-0.2-2.5-0.5-4.9-0.8-7.4c0-0.2-0.1-0.5-0.1-0.7c-0.2-2.7-0.3-5.4-0.5-8.1
		c-0.2-2.4-0.5-4.8-0.8-7.2c0-0.3-0.1-0.6-0.1-0.9c-0.2-2.5-0.2-5-0.6-7.4c-0.4-3.4-0.4-6.8-0.9-10.1c-0.3-1.9-0.3-3.8-0.4-5.6
		c-0.2-2-0.5-3.9-0.7-5.8c0-0.2-0.1-0.5-0.1-0.7c-0.2-2.7-0.3-5.4-0.5-8.1c-0.2-2.4-0.5-4.8-0.8-7.2c0-0.2-0.1-0.5-0.1-0.7
		c-0.2-2.5-0.3-5-0.5-7.4c-0.2-2.7-0.6-5.4-0.8-8.1c-0.2-2.4-0.3-4.8-0.5-7.2c-0.2-1.8-0.2-3.6-0.5-5.4c-0.2-1.3-0.2-2.5-0.3-3.8
		c-0.2-2.7-0.5-5.4-0.8-8.1c0-0.1-0.1-0.3-0.1-0.5c-0.2-2.5-0.3-5-0.5-7.4c-0.2-2.3-0.5-4.6-0.7-7c0-0.3-0.1-0.6-0.1-0.9
		c-0.2-2.5-0.3-5-0.5-7.4c-0.2-2.7-0.6-5.4-0.8-8.1c-0.2-2.4-0.3-4.8-0.5-7.2s-0.5-4.8-0.7-7.2c0-0.1-0.1-0.3-0.1-0.5
		c-0.2-2.4-0.3-4.8-0.5-7.2s-0.5-4.8-0.7-7.2c0-0.4-0.1-0.8-0.1-1.1c-0.2-2.5-0.2-5-0.5-7.4c-0.4-3.4-0.4-6.8-0.9-10.1
		c-0.3-1.9-0.3-3.8-0.4-5.6c-0.2-2.3-0.5-4.6-0.8-6.9c0-0.1,0-0.3,0-0.4c-0.2-2.6-0.3-5.1-0.5-7.7c-0.2-2.2-0.5-4.3-0.7-6.5
		c0-0.3-0.1-0.6-0.1-0.9c0.2-2.5-0.4-5-0.5-7.4c-0.2-2.7-0.6-5.4-0.8-8.1c-0.2-2.4-0.3-4.8-0.5-7.2c-0.2-2.4-0.5-4.8-0.7-7.2
		c0-0.1-0.1-0.3-0.1-0.4c-0.2-2.4-0.3-4.8-0.5-7.2c-0.2-2.5-0.5-4.9-0.8-7.4c0-0.3-0.1-0.6-0.1-0.9c-0.2-2.5-0.2-5-0.5-7.4
		c-0.4-3.4-0.4-6.8-0.9-10.1c-0.3-1.9-0.3-3.8-0.4-5.6c-0.2-2.3-0.5-4.6-0.8-6.9c-0.2-2.2-0.4-4.5-0.6-6.8c-0.1-1.2-0.2-2.4-0.4-3.6
		c0-0.1,0-0.3-0.1-0.4c-0.2-2.4-0.3-4.8-0.5-7.2c-0.2-2.2-0.5-4.3-0.7-6.5c0-0.4-0.1-0.8-0.1-1.1c-0.2-2.5-0.3-5-0.5-7.4
		c-0.2-2.7-0.6-5.4-0.8-8.1c-0.2-2.4-0.3-4.8-0.6-7.2c-0.2-1.7-0.5-3.4-0.4-5.2c0-0.5,0.1-1,0.1-1.7c0.4-0.1,0.9-0.3,1.3-0.3
		c0.7-0.1,1.4,0,2,0c114.3,0,228.5,0,342.8,0c1,0,2-0.2,2.8,0.2c0.6,0.6,0.4,1.2,0.4,1.8c-0.1,1.2-0.3,2.4-0.4,3.6
		c-0.3,2.5-0.5,5.1-0.8,7.6c0,0.2,0,0.4-0.1,0.7c-0.2,2.5-0.3,5-0.5,7.4c-0.2,2.3-0.5,4.6-0.8,7c0,0.1,0,0.1,0,0.2
		c-0.2,2.6-0.3,5.3-0.5,7.9c-0.1,1.9-0.4,3.9-0.5,5.8c-0.1,1.1-0.2,2.1-0.3,3.1c-0.3,2.8-0.5,5.7-0.8,8.5c0,0.1,0,0.3-0.1,0.4
		c-0.2,2.5-0.3,5-0.5,7.4c-0.2,2.3-0.5,4.6-0.7,6.9c0,0.1-0.1,0.3-0.1,0.4c-0.2,2.4-0.2,4.8-0.6,7.2c-0.4,2.8-0.3,5.7-0.8,8.5
		c-0.4,2.4-0.4,4.8-0.6,7.2c-0.2,2.5-0.5,4.9-0.8,7.4c0,0.1-0.1,0.3-0.1,0.4c-0.2,2.4-0.3,4.8-0.5,7.2c-0.2,2.4-0.5,4.8-0.7,7.2
		c0,0.3-0.1,0.6-0.1,0.9c-0.2,2.5-0.2,5-0.6,7.4c-0.4,2.5-0.3,5.1-0.7,7.6c-0.4,2.4-0.4,4.9-0.6,7.4s-0.5,4.9-0.7,7.4
		c0,0.2-0.1,0.4-0.1,0.7c-0.2,2.5-0.3,5-0.5,7.4c-0.2,1.9-0.4,3.9-0.5,5.8c-0.1,1-0.2,2.1-0.3,3.1c-0.2,2.5-0.5,4.9-0.7,7.4
		c0,0.3-0.1,0.6-0.1,0.9c-0.2,2.6-0.1,5.3-0.6,7.9c-0.5,2.7-0.2,5.4-0.7,8.1c-0.4,2.3-0.4,4.6-0.6,7c-0.2,2.4-0.5,4.8-0.8,7.2
		c0,0.2-0.1,0.5-0.1,0.7c0,1.7-0.2,3.3-0.4,5c-0.3,2.5-0.3,5-0.6,7.4c-0.2,2.5-0.6,5.1-0.8,7.6c-0.2,2.5-0.4,5-0.6,7.4
		c-0.1,0.8-0.1,1.5-0.2,2.2c-0.1,0.8-0.1,1.6-0.2,2.5c-0.1,1.1-0.2,2.2-0.3,3.4c0,0.2-0.1,0.5-0.1,0.7c-0.2,2.3-0.3,4.7-0.5,7
		c-0.2,2.3-0.5,4.6-0.8,7c0,0.2-0.1,0.5-0.1,0.7c0,3.2-0.4,6.5-0.9,9.7c0,0.3,0,0.6,0,0.9c0,2.9-0.4,5.9-0.8,8.8
		c0,0.2,0,0.5-0.1,0.7c-0.2,2.6-0.3,5.3-0.5,7.9c-0.2,2.5-0.5,4.9-0.8,7.4c0,0.2,0,0.5,0,0.7c-0.1,3.2-0.5,6.3-0.9,9.4
		c-0.3,2.4-0.2,4.8-0.6,7.2c-0.4,2.8-0.3,5.6-0.7,8.3c-0.4,2.1-0.4,4.4-0.6,6.5c-0.2,2.6-0.5,5.2-0.8,7.9c0,0.1,0,0.3-0.1,0.5
		c-0.2,2.5-0.3,5-0.5,7.4c-0.2,2.5-0.5,4.9-0.7,7.4c0,0.2-0.1,0.5-0.1,0.7c-0.2,2.5-0.3,5-0.5,7.4c-0.2,1.9-0.4,3.7-0.6,5.5
		c-0.7,0.8-1.5,0.8-2.3,1.1c-6.9,1.9-13.8,3.8-20.7,5.7c-6.5,1.8-13,3.5-19.4,5.3c-7,2-14.1,4-21.1,5.9c-5.4,1.5-10.8,2.9-16.1,4.4
		c-4.1,1.1-8.3,2.3-12.4,3.5c-5.5,1.5-11,3-16.6,4.6c-4.3,1.2-8.6,2.4-12.9,3.6c-4,1.1-8,2.2-12,3.3c-2.2,0.6-4.4,1.2-6.5,1.8
		c-0.7,0.2-1.4,0.6-2.1,0.9C249.9,497,249.2,497,248.4,497z M160.4,396c2.9,0.9,5.7,1.7,8.5,2.5c1.8,0.5,3.6,1,5.5,1.5
		c4.4,1.2,8.7,2.4,13.1,3.6c4.2,1.2,8.4,2.3,12.6,3.5c2.2,0.6,4.5,1.3,6.8,1.9c4.2,1.2,8.4,2.3,12.6,3.5c5,1.4,10,2.8,15,4.2
		c4.5,1.3,9,2.5,13.5,3.8c1.2,0.4,2.3,0.4,3.5,0c3.9-1.1,7.8-2.2,11.8-3.3c4.7-1.3,9.5-2.6,14.2-3.9c6.7-1.9,13.4-3.7,20-5.6
		c5.8-1.6,11.6-3.2,17.5-4.8c7-1.9,14-3.8,20.9-5.8c1.1-0.3,2.4-0.5,3.3-1.2c0.4-1,0.2-1.9,0.3-2.8c0.1-0.8,0-1.5,0.1-2.3
		c0.2-2.4,0.5-4.8,0.8-7.2c0.2-2.5,0.2-5.1,0.6-7.6c0.2-1.6,0.3-3.3,0.4-5c0.3-2.5,0.6-5.1,0.8-7.6c0.2-2.5,0.4-5,0.5-7.4
		c0-0.1,0-0.3,0.1-0.5c0.3-2.4,0.5-4.8,0.8-7.2c0.2-2.5,0.4-5.1,0.5-7.7c0-0.1,0-0.3,0-0.5c0.3-2.3,0.5-4.6,0.8-7
		c0.2-2.5,0.4-5,0.5-7.4c0-0.1,0-0.3,0-0.5c0.6-2.5,0.4-5.1,0.8-7.6c0.4-2.5,0.4-5,0.6-7.4c0-0.2,0.1-0.5,0.1-0.7
		c0.3-2.5,0.5-4.9,0.8-7.4s0.4-5,0.5-7.4c0-0.1,0-0.3,0.1-0.5c0.3-2.5,0.5-4.9,0.8-7.4c0.2-2.4,0.4-4.8,0.5-7.2
		c0-0.1,0.1-0.3,0.1-0.5c0.3-2.6,0.5-5.2,0.8-7.9c0.2-2.4,0.4-4.8,0.5-7.2c0-0.1,0.1-0.3,0.1-0.4c0.2-2.3,0.5-4.6,0.7-7
		c0.2-2.5,0.4-4.9,0.5-7.4c0-0.1,0-0.3,0.1-0.4c0.2-2.5,0.5-5.1,0.8-7.6c0.2-2.3,0.2-4.7,0.6-7c0.4-2.5,0.3-5.1,0.7-7.6
		c0.4-2.6,0.4-5.2,0.6-7.9c0-0.2,0-0.4,0.1-0.7c0.2-2.2,0.5-4.5,0.8-6.7c0.2-2.6,0.4-5.1,0.5-7.7c0-0.1,0-0.3,0.1-0.4
		c0.3-2.5,0.5-4.9,0.8-7.4c0.2-2.4,0.4-4.8,0.5-7.2c0-0.1,0-0.3,0.1-0.4c0.3-2.7,0.5-5.4,0.8-8.1c0.1-1.1,0.2-2.1,0.3-3.1
		c0.1-1,0.4-2.1-0.2-3.1c-1.1-0.3-2.1-0.2-3.2-0.2c-70.5,0-141.1,0-211.6,0c-0.3,0-0.6,0-0.9,0c-0.3,0-0.6,0-0.9,0
		c-0.4,0.1-0.8,0.2-1.3,0.3c-0.3,1.2-0.2,2.2,0,3.2c0.1,0.6,0.2,1.2,0.2,1.8c0.2,2.5,0.4,5,0.5,7.4c0,0.1,0,0.3,0.1,0.4
		c0.3,2.3,0.6,4.6,0.8,6.9c0.2,2.5,0.4,5,0.5,7.4c0,0.1,0,0.3,0.1,0.4c0.6,2.4,0.4,4.8,0.8,7.2c0.4,2.4,0.4,4.8,0.6,7.2
		c0,0.1,0.1,0.2,0.3,0.5c0.9,0.4,1.9,0.2,2.8,0.2c49.7,0,99.4,0,149.1,0c3.9,0,7.9,0,11.8,0c0.6,0,1.2,0,1.8,0.1
		c0.4,0,0.7,0.2,1,0.4c0.4,1,0.3,2,0.1,3c-0.1,0.5-0.2,1-0.2,1.6c-0.2,2.6-0.4,5.3-0.5,7.9c0,0.2,0,0.4-0.1,0.7
		c-0.3,2.4-0.6,4.8-0.8,7.2c-0.2,2.6-0.4,5.1-0.5,7.7c0,0.1,0,0.3,0,0.4c-0.3,2.3-0.6,4.6-0.8,6.9c-0.2,2.5-0.4,5-0.5,7.4
		c0,0.8-0.1,1.5-1.1,2.1c-0.7,0-1.6,0-2.5,0c-36.4,0-72.8,0-109.2,0c-14.5,0-29,0-43.5,0c-0.7,0-1.4,0-2,0c-0.3,0-0.6,0.1-1,0.2
		c0,0.4-0.1,0.8-0.1,1.1c0.2,2.5,0.6,4.9,0.8,7.4c0.2,2.5,0.4,5.1,0.5,7.7c0,0.1,0.1,0.3,0.1,0.5c0.1,1,0.2,2.1,0.3,3.1
		c0.1,0.6,0.1,1.2,0.1,1.8c0.1,1.1,0.2,2.2,0.3,3.4c0,0.5,0,0.9,0.1,1.4c0.3,2.3,0.6,4.6,0.8,7c0.2,2.6,0.4,5.3,0.5,7.9
		c0,0.7,0.1,1.4,0.9,2c0.8,0,1.7,0,2.7,0c48.1,0,96.2,0,144.3,0c0.8,0,1.5,0,2.3,0c0.4,0,0.9,0.1,1.2,0.2c0.5,0.9,0.3,1.6,0.2,2.3
		c-0.1,0.7-0.2,1.3-0.3,2c-0.2,2.4-0.4,4.8-0.5,7.2c0,0.1,0,0.3-0.1,0.5c-0.5,2.7-0.5,5.4-0.8,8.1c-0.2,2.2-0.3,4.5-0.5,6.8
		c-0.2,2.5-0.6,5.1-0.8,7.6c-0.2,2.5-0.4,5-0.5,7.4c0,0.1,0,0.3,0,0.5c-0.4,2.9-0.6,5.8-0.8,8.8c-0.1,1.8-0.4,3.6-0.6,5.6
		c-8.2,2.4-16.5,4.5-24.7,6.7c-8.2,2.2-16.4,4.5-24.4,6.6c-4.5-1.2-8.7-2.4-12.9-3.5c-4.1-1.1-8.3-2.2-12.4-3.4
		c-7.1-1.9-14.1-3.8-21.2-5.7c-0.7-0.2-1.5-0.3-2.2-1.1c-0.1-1.5-0.3-3.2-0.4-5c0-0.4-0.1-0.8-0.1-1.1c-0.3-2.5-0.6-5.1-0.8-7.6
		c-0.2-2.5-0.4-5-0.5-7.4c0-0.1,0-0.1,0-0.2c-0.4-3.1-0.8-6.3-0.9-9.4c0-1.1-0.2-2.2-0.7-3.2c-1.9-0.3-36.4-0.4-41.8-0.2
		c-0.4,0-0.7,0.1-1.2,0.2c0,0.5-0.2,0.8-0.1,1.2c0.4,1.2,0.3,2.4,0.4,3.6c0,0.5,0,0.9,0.1,1.4c0.3,2.5,0.6,5.1,0.8,7.6
		c0.2,2.5,0.4,5,0.5,7.4c0,0.1,0,0.3,0.1,0.5c0.3,2.3,0.6,4.6,0.8,7c0.2,2.5,0.4,5,0.5,7.4c0,0.1,0,0.3,0.1,0.5
		c0.3,2.5,0.6,5.1,0.8,7.6c0.2,2.5,0.4,5,0.5,7.4c0,0.1,0,0.3,0.1,0.5c0.3,2.5,0.6,5.1,0.8,7.6c0.2,2.5,0.4,5.1,0.6,7.7
		C160.2,395.6,160.3,395.7,160.4,396z"/>
	<path class="st0" d="M273.8,3.6c0.4,0.6,0.5,1.2,0.5,1.9c0,5.3,0,10.6,0,15.9c0,0.5-0.1,1-0.2,1.5c-0.9,0.5-1.7,0.3-2.5,0.4
		c-8.4,0-16.8,0-25.1,0c-0.8,0-1.6,0-2.5,0c-0.7,1.1-0.4,2.1-0.3,3.1c0.8,0.5,1.7,0.3,2.5,0.3c7.2,0,14.4,0,21.5,0
		c1.6,0,3.2,0,4.8,0c0.5,0,1,0.1,1.6,0.2c0.1,0.5,0.2,0.9,0.3,1.3c0,0.5,0,0.9,0,1.4c0,13,0,26,0,38.9c0,0.6,0,1.2,0,1.8
		c0,0.3-0.2,0.7-0.3,0.9c-0.9,0.5-1.7,0.3-2.5,0.3c-6,0-11.9,0-17.9,0c-10,0-19.9,0-29.9,0c-0.8,0-1.7,0.2-2.6-0.3
		c-0.1-0.3-0.2-0.6-0.2-1c0-6,0-12.1,0-18.1c0-0.4,0.1-0.7,0.2-1c0.7-0.6,1.4-0.5,2.1-0.5c3.6,0,7.1,0,10.6,0c5.1,0,10.3,0,15.4,0
		c0.7,0,1.5,0,2.2-0.1c0.4-1,0.4-1.8,0.2-2.7c-0.7-0.6-1.5-0.4-2.2-0.4c-6,0-12.1,0-18.1,0c-2.6,0-5.3,0-7.9,0
		c-0.7,0-1.5,0.1-2.3-0.6c0-0.5-0.1-1-0.1-1.6c0-13.5,0-27,0-40.5c0-0.4,0-0.8,0.1-1.1C238.5,3.6,256.1,3.6,273.8,3.6z"/>
	<path class="st0" d="M337.7,3.6c0,6,0,12.1,0,18.1c0,0.4-0.1,0.7-0.2,1.2c-0.5,0.1-1,0.2-1.5,0.3c-2.4,0-4.8,0-7.2,0
		c-6.4,0-12.8,0-19.3,0c-0.7,0-1.5,0-2.3,0.1c-0.5,1.1-0.3,2.1-0.1,3.1c0.9,0.4,1.7,0.2,2.5,0.2c8.5,0,16.9,0,25.4,0
		c0.8,0,1.6-0.1,2.5,0.3c0.1,0.4,0.2,0.8,0.2,1.3c0,0.4,0,0.8,0,1.1c0,13.1,0,26.3,0,39.4c0,0.8,0.1,1.7-0.3,2.5
		c-0.4,0.1-0.9,0.2-1.3,0.2c-0.3,0-0.6,0-0.9,0c-16.1,0-32.2,0-48.3,0c-0.8,0-1.7,0.2-2.5-0.5c-0.1-0.4-0.2-0.9-0.2-1.4
		c0-5.7,0-11.3,0-17c0-0.5,0.1-1,0.2-1.6c0.5-0.1,0.9-0.3,1.3-0.4c0.7-0.1,1.4,0,2,0c8.2,0,16.3,0,24.5,0c0.8,0,1.6,0.1,2.5-0.2
		c0.3-0.9,0.3-1.7,0-2.6c-0.8-0.4-1.6-0.3-2.5-0.3c-6.6,0-13.3,0-19.9,0c-1.9,0-3.8,0-5.7,0c-0.7,0-1.3-0.1-2.1-0.1
		c-0.2-0.5-0.4-0.9-0.5-1.3c-0.1-0.5,0-1,0-1.6c0-12.7,0-25.4,0-38.1c0-1-0.1-2,0.5-2.9C302.4,3.6,320,3.6,337.7,3.6z"/>
	<path class="st0" d="M210.4,3.6c0.4,0.7,0.4,1.4,0.4,2.2c0,6,0,12.1,0,18.1c0,0.7,0.1,1.5-0.5,2.1c-0.8,0.4-1.6,0.2-2.4,0.2
		c-8.3,0-16.6,0-24.9,0c-0.8,0-1.6,0-2.4,0c-0.8,0.7-0.6,1.5-0.6,2.2c0,5.2,0,10.4,0,15.6c0,1.1-0.1,2.3,0.1,3.3
		c0.7,0.6,1.5,0.4,2.2,0.4c6.4,0,12.8,0,19.2,0c2.2,0,4.4,0,6.6,0c0.7,0,1.3,0.1,2.1,0.1c0.2,0.5,0.4,0.9,0.5,1.3c0,0.1,0,0.2,0,0.2
		c0,6.6,0,13.3,0,19.9c0,0.2-0.1,0.4-0.2,0.8c-0.4,0.1-0.8,0.4-1.2,0.4c-4.2,0-8.4-0.1-12.6-0.1c-4.1,0-8.2,0.1-12.4,0.1
		c-3.4,0-6.7,0-10.1-0.1c-3.3,0-6.6,0-9.9,0c-1.7,0-3.4,0.1-5.2,0.1c-0.6,0-1.2-0.2-1.8-0.4c-0.1-0.6-0.2-1.1-0.2-1.6
		c0-0.5,0-1.1,0-1.6c0-20.2,0-40.3,0-60.5c0-1,0.1-2,0.1-2.9C175,3.6,192.7,3.6,210.4,3.6z"/>
</g>
</svg>
