<?xml version="1.0" encoding="utf-8"?>
<!-- Generator: Adobe Illustrator 26.3.0, SVG Export Plug-In . SVG Version: 6.00 Build 0)  -->
<svg version="1.1" id="Capa_1" xmlns="http://www.w3.org/2000/svg" xmlns:xlink="http://www.w3.org/1999/xlink" x="0px" y="0px"
	 viewBox="0 0 500 500" style="enable-background:new 0 0 500 500;" xml:space="preserve">
<style type="text/css">
	.st0{fill:#FBAF18;}
</style>
<g>
	<path class="st0" d="M249.2,498.7c-0.6-0.7-1.4-0.8-2.1-1c-13.4-3.7-26.7-7.4-40.1-11.1c-25.9-7.2-51.7-14.4-77.6-21.5
		c-7.2-2-14.4-4-21.7-6c-0.4-0.1-0.8-0.2-1.2-0.4c-0.4-1.6-0.5-3.2-0.6-4.8c-0.5-5.1-0.9-10.1-1.4-15.2c-0.4-4.5-0.8-9-1.2-13.5
		s-0.8-9-1.2-13.5c-0.2-2.1-0.4-4.2-0.6-6.3c-0.6-7.1-1.3-14.3-1.9-21.4c-0.6-6.4-1.1-12.7-1.6-19c-0.6-6.3-1.2-12.5-1.7-18.8
		c-0.4-4.5-0.8-9-1.2-13.5c-0.4-4.4-0.8-8.8-1.2-13.2c-0.4-4.3-0.8-8.7-1.1-13c-0.4-4.7-0.8-9.3-1.3-14c-0.2-2.2-0.4-4.3-0.6-6.5
		c-0.6-7.1-1.3-14.1-1.9-21.2c-0.4-4.5-0.8-9-1.1-13.5c-0.4-4.4-0.8-8.8-1.2-13.2c-0.4-4.1-0.7-8.2-1.1-12.3c-0.4-5-0.9-10-1.3-14.9
		c-0.4-4.4-0.8-8.8-1.1-13.3c-0.4-4.6-0.8-9.1-1.3-13.7c-0.2-2.1-0.4-4.2-0.6-6.3c-0.6-6.4-1.1-12.7-1.6-19
		c-0.6-6.2-1.2-12.4-1.7-18.6c-0.4-4.5-0.8-9-1.2-13.5c-0.4-4.4-0.8-8.8-1.2-13.2c-0.4-3.9-0.7-7.9-1.1-11.8c0-0.3,0-0.6,0.1-0.8
		c0.2-0.1,0.4-0.3,0.5-0.3c116.5,0,233,0,349.5-0.1c0.2,0,0.5,0.1,0.8,0.2c0.3,0.8,0.1,1.6,0,2.4c0,0.7-0.1,1.4-0.2,2.2
		c-0.4,4.8-0.9,9.6-1.3,14.4c-0.4,4.6-0.9,9.1-1.3,13.7c-0.2,2.2-0.4,4.5-0.6,6.8c-0.6,6.9-1.2,13.8-1.9,20.7
		c-0.4,4.4-0.7,8.8-1.1,13.3c-0.4,4.5-0.8,9-1.2,13.5c-0.2,2.1-0.4,4.2-0.6,6.3c-0.6,7.1-1.3,14.3-1.9,21.4c-0.4,4.5-0.7,9-1.1,13.5
		c-0.4,4.4-0.8,8.8-1.2,13.2s-0.8,8.8-1.1,13.3c-0.4,4.6-0.8,9.2-1.3,13.7c-0.2,2-0.4,4-0.5,6c-0.5,6.4-1.1,12.7-1.6,19
		c-0.6,6.3-1.2,12.5-1.7,18.8c-0.4,4.5-0.8,9-1.1,13.5c-0.4,4.4-0.8,8.8-1.2,13.2c-0.4,4.2-0.7,8.4-1.1,12.5
		c-0.4,4.8-0.9,9.6-1.3,14.5c-0.2,2.2-0.4,4.5-0.6,6.8c-0.6,6.9-1.2,13.8-1.9,20.7c-0.4,4.5-0.8,9-1.1,13.5s-0.9,9-1.3,13.5
		c-0.4,4.4-0.8,8.8-1.1,13.3c-0.4,4.6-0.9,9.1-1.3,13.7c-0.2,2.6-0.4,5.3-0.7,8c-0.1,0.9-0.2,1.8-0.3,2.7c-0.6,0.2-1.1,0.5-1.6,0.6
		c-16.2,4.5-32.5,9-48.7,13.5c-30.1,8.4-60.2,16.7-90.4,25.1c-0.8,0.2-1.8,0.2-2.3,1.1C250.1,498.7,249.7,498.7,249.2,498.7z
		 M249.8,376.7c-4.2-1.1-8.3-2.2-12.4-3.4c-11.4-3.1-22.7-6.1-34.1-9.2c-0.8-0.2-1.7-0.3-2.5-0.9c-0.4-3.9-0.7-7.7-1.1-11.6
		c-0.3-3.9-0.6-7.7-1-11.6c-0.4-3.8-0.6-7.7-1.2-11.6c-0.9,0-1.7-0.1-2.5-0.1c-7.6,0-15.2,0-22.8,0c-5.6,0-11.1,0-16.7,0
		c-0.6,0-1.3-0.2-1.9,0.5c0.1,0.9,0.1,2,0.2,3c0.5,5.5,1,11.1,1.5,16.6c0.2,2,0.4,4,0.6,6c0.4,4.5,0.8,9,1.2,13.5
		c0.4,4.4,0.7,8.8,1.1,13.3c0.4,4.9,0.9,9.8,1.4,14.7c0,0.5,0.2,0.9,0.3,1.4c0.8,0.2,1.5,0.4,2.2,0.6c6.1,1.7,12.1,3.4,18.2,5
		c22.6,6.3,45.2,12.5,67.8,18.8c1.3,0.4,2.5,0.4,3.8,0c7.8-2.2,15.5-4.3,23.3-6.5c20.9-5.8,41.8-11.6,62.6-17.4
		c0.8-0.2,1.5-0.5,2.2-0.7c0.1-0.4,0.2-0.6,0.2-0.9c0.3-3.5,0.6-7.1,1-10.6c0.6-7.1,1.3-14.3,1.9-21.4c0.6-7.3,1.3-14.6,2-21.9
		c0.6-7.2,1.3-14.5,1.9-21.7c0.6-7.2,1.3-14.5,1.9-21.7c0.6-6.4,1.1-12.7,1.6-19c0.2-2.2,0.4-4.5,0.6-6.7c0.3-3.1,0.6-6.3,0.8-9.4
		c0-0.5,0.2-1-0.4-1.5c-2.1-0.1-4.5,0-6.8,0c-2.3,0-4.5,0-6.8,0c-2.3,0-4.7,0-7,0s-4.7,0-7,0c-2.3,0-4.5,0-6.8,0c-2.3,0-4.7,0-7,0
		s-4.7,0-7,0s-4.7,0-7,0c-2.3,0-4.5,0-6.8,0c-2.3,0-4.7,0-7,0s-4.7,0-7,0c-2.3,0-4.5,0-6.8,0c-2.3,0-4.7,0-7,0s-4.7,0-7,0
		c-2.3,0-4.5,0-6.8,0c-2.3,0-4.7,0-7,0c-2.3,0-4.7,0-7,0c-2.3,0-4.7,0-7,0c-2.3,0-4.5,0-6.8,0c-2.3,0-4.7,0-7,0c-2.3,0-4.7,0-7,0
		c-2.3,0-4.5,0-6.8,0c-2.3,0-4.6,0.1-6.9-0.1c-0.1-0.3-0.3-0.5-0.3-0.8c-1.3-14.5-2.6-29.1-3.9-43.6c0-0.1,0-0.2,0.1-0.2
		c0-0.1,0.1-0.1,0.3-0.3c0.7,0,1.6-0.1,2.5-0.1c20.6,0,41.1,0,61.7,0c33.4,0,66.8,0,100.2,0c0.6,0,1.3,0,1.9,0
		c0.5,0,0.9-0.1,1.5-0.2c1.3-14.2,2.6-28.4,3.9-42.5c0-0.2,0-0.5,0-0.7c0-0.1,0-0.2,0-0.2s-0.1-0.1-0.2-0.2
		c-0.2-0.1-0.4-0.1-0.6-0.1c-72.9,0-145.7,0-218.5,0.1c-0.1,0-0.3,0.1-0.6,0.3c0,0.3-0.1,0.7,0,1.1c0.3,3.7,0.6,7.4,1,11.1
		c0.6,6.2,1.2,12.4,1.7,18.5c0.6,6.3,1.1,12.7,1.6,19c0.2,2.1,0.4,4.2,0.6,6.3c0.4,4.7,0.9,9.5,1.3,14.2c0.4,4.3,0.7,8.5,1.1,12.8
		c0.4,4.5,0.9,9,1.2,13.5c0.4,4.4,0.7,8.8,1.1,13.3c0.6,7,1.2,14,1.9,21c0.1,0.6,0.2,1.2,0.4,2c1.1,0,2.1,0,3,0c48.5,0,97,0,145.5,0
		c0.7,0,1.5,0,2.2,0c0.5,0,0.9,0.1,1.5,0.2c-0.3,3.1-0.5,6-0.8,9c-0.4,4.4-0.8,8.8-1.2,13.2c-0.4,4.4-0.8,8.8-1.1,13.3
		c-0.5,5.1-0.9,10.1-1.4,15.2c-0.2,2-0.4,4-0.6,6.1C282.5,367.9,266.2,372.3,249.8,376.7z"/>
	<path class="st0" d="M275.1,69.4c-2.2,0.3-19.4,0.3-21.5,0c-0.1-0.6-0.1-1.2-0.1-1.8c0-4.7,0-9.4,0-14c0-15.9,0-31.8,0-47.7
		c0-0.9,0-1.8,0-2.7c0.5-0.1,0.9-0.2,1.2-0.2c7,0,14,0,21.1,0c0.3,0,0.6,0.1,1.1,0.1c4.6,7.6,9.3,15.2,14,23c0.7-0.4,0.9-1,1.2-1.5
		c4-6.5,7.9-12.9,11.8-19.4c0.4-0.7,0.9-1.3,1.3-2c1.9-0.3,19.7-0.4,23.2-0.1c0.1,0.4,0.2,0.9,0.2,1.3c0,0.5,0,1,0,1.5
		c0,20.3,0,40.7,0,61c0,0.9,0.2,1.8-0.2,2.7c-0.4,0.1-0.7,0.2-1.1,0.2c-6,0.2-18.6,0.1-20.6-0.2c-0.4-0.8-0.2-1.7-0.2-2.5
		c0-9,0-18.1,0-27.1c0-0.8,0-1.6,0-2.5c-0.8,0.1-1,0.7-1.2,1.1c-4.3,6.6-8.5,13.1-12.8,19.7c-0.4,0.7-0.9,1.3-1.4,2
		c-1-0.4-1.2-1.2-1.6-1.8c-4.1-6.3-8.2-12.7-12.4-19.1c-0.4-0.7-0.9-1.3-1.3-1.9c-0.2,0-0.3,0-0.3,0.1c0,0.1-0.1,0.1-0.1,0.2
		c0,0.2,0,0.3,0,0.5c0,10.2,0,20.5,0,30.7c0,0.1,0,0.2,0,0.2C275.2,69.1,275.2,69.2,275.1,69.4z"/>
	<path class="st0" d="M129.6,47.4c-0.1,2.5,0,4.9-0.1,7.3c0,2.4,0,4.8,0,7.3c0,2.4,0,4.8,0,7.3c-0.5,0.1-0.9,0.3-1.2,0.3
		c-6.6,0-13.2,0-19.8,0c-0.3,0-0.6-0.1-1-0.2c-0.1-0.5-0.2-0.9-0.2-1.4c0-0.6,0-1.1,0-1.7c0-20.1,0-40.2,0-60.3c0-1,0-1.9,0.1-3
		c0.5-0.1,0.9-0.3,1.2-0.3c6.6,0,13.2,0,19.9,0c0.3,0,0.6,0.1,0.9,0.1c0.5,0.7,0.3,1.5,0.3,2.2c0,5.6,0,11.3,0,16.9
		c0,0.8,0.1,1.6,0.1,2.3c0.2,0.1,0.2,0.2,0.3,0.3c0.1,0,0.1,0.1,0.2,0.1c0.6,0,1.3,0.1,1.9,0.1c5.7,0,11.4,0,17.2,0
		c0.1,0,0.3-0.1,0.6-0.2c0-0.5,0.1-1.2,0.1-1.8c0-5.7,0-11.5,0-17.2c0-0.8,0.1-1.6,0.1-2.5c0.6-0.1,1-0.2,1.5-0.2
		c10.9-0.2,18.6-0.1,20.6,0.3c0,0.5,0.1,1.1,0.1,1.6c0.3,20.6,0.1,62.3-0.2,64.6c-0.2,0.1-0.4,0.2-0.6,0.2c-6.9,0-13.7,0-20.6,0
		c-0.2,0-0.4-0.2-0.8-0.2c-0.3-2.4-0.1-4.8-0.1-7.2c0-2.5,0-5,0-7.5c0-2.4,0.2-4.8-0.2-7.3c-0.5-0.1-0.9-0.2-1.2-0.2
		C144,47,131.8,47.2,129.6,47.4z"/>
	<path class="st0" d="M181.9,3.1c2.7-0.4,46.5-0.5,60.1-0.2c0.5,0,0.9,0.1,1.5,0.2c0.1,0.5,0.2,0.8,0.2,1.2
		c0.2,5.8,0.1,18.4-0.2,20.5c-0.6,0.1-1.2,0.2-1.8,0.2c-5,0-10,0-15,0c-0.8,0-1.6,0.1-2.5,0.1c-0.4,2.6-0.1,5.1-0.2,7.6
		c0,2.4,0,4.8,0,7.3c0,2.5,0,5,0,7.5c0,2.4,0,4.8,0,7.3c0,2.5,0,5,0,7.5c0,2.4,0,4.8,0,7.3c-0.4,0.1-0.7,0.3-1,0.3
		c-6.7,0-13.4,0-20.1,0c-0.3,0-0.6-0.1-0.9-0.2c-0.4-0.9-0.2-1.8-0.2-2.7c0-13,0-26,0-39c0-0.9,0.1-1.8-0.2-2.8
		c-0.6-0.1-1.2-0.2-1.9-0.2c-5,0-10,0-15,0c-0.8,0-1.6,0-2.5-0.1c-0.3-2.5-0.1-4.9-0.2-7.3c0-2.3,0-4.7,0-7
		C181.9,8.1,181.9,5.7,181.9,3.1z"/>
	<path class="st0" d="M393.5,47.5c0,7.5,0,14.6,0,21.7c-0.8,0.7-1.5,0.4-2.2,0.4c-5.7,0-11.5,0-17.2,0c-10.5,0-21,0-31.5,0
		c-0.9,0-1.8,0.1-2.7-0.2c-0.1-0.4-0.1-0.8-0.1-1.2c-0.3-8.2-0.1-62.8,0.2-65.2c0.2-0.1,0.5-0.2,0.8-0.2c6.7,0,13.4,0,20.1,0
		c0.3,0,0.6,0.1,1,0.1c0.3,0.9,0.2,1.8,0.2,2.7c0,13,0,26,0,39c0,0.9,0,1.7,0.1,2.6c0.9,0.4,1.7,0.3,2.5,0.3c8.6,0,17.3,0,25.9,0
		C391.5,47.5,392.3,47.5,393.5,47.5z"/>
</g>
</svg>
