<?xml version="1.0" encoding="utf-8"?>
<!-- Generator: Adobe Illustrator 26.3.0, SVG Export Plug-In . SVG Version: 6.00 Build 0)  -->
<svg version="1.1" id="Capa_1" xmlns="http://www.w3.org/2000/svg" xmlns:xlink="http://www.w3.org/1999/xlink" x="0px" y="0px"
	 viewBox="0 0 500 500" style="enable-background:new 0 0 500 500;" xml:space="preserve">
<style type="text/css">
	.st0{fill:#FBAF18;}
</style>
<g>
	<path class="st0" d="M424.9,100.1c0.1,0.9,0.2,1.7,0.1,2.4c-0.1,2.8,0.2,5.7-0.5,8.5c0,0.2,0,0.4,0,0.6c-0.2,3.3-0.4,6.6-0.7,9.9
		c-0.3,3.1-0.7,6.2-1,9.3c0,0.1,0,0.2,0,0.3c-0.2,3.3-0.4,6.6-0.7,9.9c-0.3,3.1-0.6,6.2-0.9,9.3c0,0.3-0.1,0.6-0.1,0.8
		c-0.2,3.2-0.4,6.4-0.7,9.6c-0.3,3.3-0.7,6.6-1,9.8c-0.1,0.6,0,1.1-0.1,1.7c-0.1,1.4-0.3,2.8-0.4,4.2c-0.1,0.7-0.1,1.3-0.1,2
		c0,1.7,0,3.4-0.5,5.1c-0.2,0.6-0.1,1.3-0.1,2c-0.1,1.3-0.3,2.6-0.4,3.9c0,0.5-0.1,0.9-0.1,1.4c-0.2,2.9-0.3,5.8-0.6,8.8
		c-0.5,4.3-0.9,8.6-1.1,13c-0.2,3.1-0.7,6.2-1,9.3s-0.4,6.2-0.7,9.3c-0.3,3.2-0.6,6.4-1,9.6c0,0.3-0.1,0.6-0.1,0.9
		c-0.2,3.3-0.2,6.6-0.7,9.9c-0.5,3.2-0.3,6.4-0.9,9.6c-0.5,2.9-0.5,5.8-0.7,8.7c-0.3,3.4-0.7,6.8-1,10.1c0,0.3-0.1,0.6-0.1,0.9
		c-0.2,3.1-0.4,6.2-0.7,9.3c-0.3,2.9-0.7,5.8-1,8.7c-0.3,2.7-0.4,5.5-0.7,8.2c-0.4,3.5-0.4,7-1,10.4c0,0.2,0,0.4-0.1,0.6
		c-0.2,3.2-0.4,6.4-0.7,9.6c-0.3,3-0.6,6-0.9,9c0,0.2-0.1,0.4-0.1,0.6c-0.2,3.1-0.4,6.2-0.7,9.3c-0.3,3.4-0.6,6.8-1,10.1
		c0,0.2-0.1,0.4-0.1,0.6c-0.2,3.2-0.4,6.4-0.7,9.6c-0.2,2.8-0.6,5.6-0.9,8.4c0,0.2-0.1,0.4-0.1,0.6c-0.2,2.9-0.4,5.8-0.7,8.8
		c-0.3,3.2-0.6,6.4-1,9.6c0,0.2-0.1,0.4-0.1,0.6c-0.2,3-0.4,6-0.7,9c-0.3,3-0.6,6-0.9,9c0,0.2-0.1,0.4-0.1,0.6
		c-0.2,3.2-0.4,6.4-0.7,9.6c-0.2,2.8-0.6,5.6-0.9,8.4c0,0.3-0.1,0.6-0.1,0.8c-0.2,3.2-0.5,6.4-0.7,9.6c-0.1,1.9-0.4,3.8-0.5,5.6
		c-0.4,3.3-0.8,6.6-1.1,9.9c-0.7,0.4-1.3,0.9-1.9,1.2c-1.7,0.8-3.5,1.6-5.2,2.1c-6.3,2-12.7,3.9-19,5.7c-6,1.8-12,3.5-18,5.1
		c-5.3,1.5-10.6,2.9-15.9,4.4c-5.4,1.5-10.8,3-16.1,4.4c-5.6,1.6-11.3,3.1-16.9,4.7c-6.1,1.7-12.2,3.3-18.3,5
		c-5.2,1.4-10.4,2.8-15.6,4.2c-2.7,0.7-5.5,1.5-8.2,2.2c-2.7,0.7-5.5,1.4-8.2,2.1c-1,0.3-2,0.2-3.1-0.1
		c-12.4-3.4-24.8-6.9-37.2-10.3c-9.4-2.6-18.8-5.1-28.1-7.7c-10.3-2.9-20.5-5.8-30.8-8.7c-8.6-2.4-17.3-4.8-25.9-7.2
		c-6.1-1.7-12.2-3.5-18.4-5.2c-0.6-1.2-0.9-2.5-1-4c-0.2-3.9-0.5-7.7-1.1-11.5c0-0.1,0-0.2,0-0.3c-0.2-3.2-0.4-6.4-0.7-9.6
		c-0.3-3-0.6-6-0.9-9c0-0.3-0.1-0.6-0.1-0.8c-0.2-3.3-0.4-6.6-0.7-9.9c-0.2-2.9-0.6-5.8-0.9-8.7c0-0.2-0.1-0.4-0.1-0.6
		c-0.2-3-0.4-6-0.7-9c-0.3-3-0.6-6-0.9-9c0-0.2-0.1-0.4-0.1-0.6c-0.2-3-0.4-6-0.7-9c-0.3-3-0.6-6-0.9-9c0-0.3-0.1-0.6-0.1-0.8
		c-0.2-3.3-0.4-6.6-0.7-9.9c-0.2-2.9-0.6-5.8-0.9-8.7c0-0.2-0.1-0.4-0.1-0.6c-0.2-3.2-0.4-6.4-0.7-9.6c-0.3-3-0.6-6-0.9-9
		c0-0.2-0.1-0.4-0.1-0.6c-0.2-2.9-0.4-5.8-0.7-8.8c-0.1-1.3-0.3-2.6-0.4-3.9c0-0.2-0.1-0.4-0.1-0.6c-0.2-3.1-0.4-6.2-0.7-9.3
		c-0.3-3.1-0.6-6.2-0.9-9.3c-0.1-0.5-0.1-0.9-0.2-1.4c-0.2-2.9-0.4-5.8-0.7-8.8c-0.3-2.9-0.7-5.8-1-8.7c-0.3-3.2-0.4-6.4-0.7-9.6
		c-0.3-3-0.6-6-0.9-9c0-0.2-0.1-0.4-0.1-0.6c-0.2-3-0.4-6-0.7-9c-0.3-3.3-0.6-6.6-1-9.8c0-0.2-0.1-0.4-0.1-0.6
		c-0.2-3.2-0.4-6.4-0.7-9.6c-0.3-3-0.6-6-0.9-9c0-0.2-0.1-0.4-0.1-0.6c-0.2-3-0.4-6-0.7-9c-0.3-3.3-0.6-6.6-1-9.9
		c0-0.3-0.1-0.6-0.1-0.8c-0.2-3-0.4-6-0.7-9c-0.3-3-0.6-6-0.9-9c0-0.2-0.1-0.4-0.1-0.6c-0.2-3.3-0.4-6.6-0.7-9.9
		c-0.2-2.9-0.6-5.8-0.9-8.7c0-0.4-0.1-0.8-0.1-1.1c-0.1-2-0.2-3.9-0.5-5.9c-0.4-3.4-0.4-6.8-0.7-10.2c-0.3-3.2-0.6-6.4-1-9.6
		c0-0.2-0.1-0.4-0.1-0.6c-0.2-3.3-0.4-6.6-0.7-9.9c-0.3-3.2-0.7-6.4-1-9.6c-0.1-0.8-0.1-1.5-0.1-2.3c-0.1-1.5-0.3-3-0.4-4.5
		c-0.2-3.2-0.2-6.4-0.1-9.7c0.6-0.2,1.2-0.3,1.7-0.4c0.8-0.1,1.5,0,2.3,0c114,0,228,0,341.9,0C422.2,99.8,423.4,99.6,424.9,100.1z
		 M160,397.5c2.1,1,4.2,1.5,6.3,2.1c6.5,1.9,13.1,3.8,19.6,5.7c3.4,1,6.9,2,10.4,2.9c5.6,1.6,11.3,3.1,16.9,4.7
		c4.4,1.2,8.7,2.5,13.1,3.7c6.6,1.8,13.3,3.6,20,5.4c1.7,0.5,3.3,0.5,5,0.1c3.6-1,7.3-1.9,11-2.9c2.3-0.6,4.6-1.1,6.9-1.8
		c6.3-1.7,12.6-3.5,18.9-5.2c8.6-2.4,17.1-4.7,25.7-7.1c7.4-2.1,14.7-4.4,22-6.6c1.3-0.4,2.7-0.8,3.8-1.6c0.6-1.8,0.8-3.6,0.9-5.4
		c0.1-2.5,0.5-4.9,0.7-7.3c0.3-3,0.6-6,0.9-9c0.3-2.7,0.4-5.5,0.7-8.2c0.3-2.9,0.7-5.8,1-8.7c0.3-3.1,0.4-6.2,0.7-9.3
		c0-0.2,0-0.4,0-0.6c0.3-2.9,0.7-5.8,1-8.7s0.4-5.8,0.6-8.8c0-0.5,0.1-0.9,0.2-1.4c0.1-0.9,0.2-1.9,0.3-2.8c0.2-3.1,0.4-6.2,0.7-9.3
		c0-0.2,0.1-0.4,0.1-0.6c0.1-1.4,0.3-2.8,0.4-4.2c0.1-0.7,0.1-1.3,0.1-2c0.1-1.5,0.3-3,0.4-4.5c0.1-0.8,0.1-1.5,0.1-2.3
		c0.1-1.5,0.3-3,0.4-4.5c0-0.6,0.1-1.1,0.1-1.7c0.3-3,0.7-6,1-9c0.3-2.9,0.5-5.8,0.7-8.8c0-0.3,0.1-0.6,0.1-0.8
		c0.3-2.7,0.7-5.4,0.9-8.1c0.1-1.6,0.1-3.2,0.5-4.8c0.2-1,0.4-2.1-0.6-3c-1.7-0.2-3.4-0.5-5.2-0.7c-0.8-0.1-1.5-0.1-2.3-0.1
		c-5.7,0-11.4-0.1-17-0.1c-40.2,0-80.5,0-120.7,0c-0.9,0-1.7,0-2.6,0c-0.6,0-1.1-0.1-1.8-0.2c-0.1-0.7-0.2-1.2-0.2-1.8
		c0.3-2.9,0.7-5.8,1-8.7c0.3-3.1,0.4-6.2,0.7-9.3c0-0.2,0-0.4,0-0.6c0.6-3.5,0.9-7.1,1.1-10.7c0-0.4,0.1-0.8,0.1-1.1
		c0.3-3.2,0.7-6.4,1-9.6c0.2-2.7,0.3-5.5,0.7-8.2c0.3-1.9,0.3-3.8,0.5-5.6c0.3-3.3,0.7-6.6,1.1-9.8c0.1-1,0.4-2,1-3
		c1,0,2.1-0.1,3.1-0.1c2.8,0,5.7,0.2,8.5-0.2c2.6-0.3,5.1-0.4,7.6-0.4c3.3-0.1,6.6,0,9.9-0.1c1,0,2.1-0.3,3.1-0.3
		c2.6-0.1,5.3-0.4,7.9-0.1c1.9,0.2,3.8,0.4,5.6,0.4c2.8,0,5.7,0,8.5,0c0.8,0,1.5-0.1,2.3,0.1c1.9,0.5,3.8,0.4,5.6,0.4
		c2.6,0,5.1,0,7.7,0.1c0.8,0,1.5-0.1,2.3,0.1c1.5,0.4,3,0.3,4.5,0.4c1.9,0.1,3.8-0.1,5.7,0.2c1.5,0.2,3,0.3,4.5,0.4
		c2,0.2,3.9,0.5,5.9,0.7c0.2,0,0.5,0.3,0.8,0.5c0.3,1.6,0.6,3.2,0.8,4.9c0.3,2.3,0.4,4.7,0.7,7c0.5,3.5,1,6.9,1.1,10.4
		c0,0.3,0.1,0.6,0.1,0.9c0.3,2.7,0.7,5.4,0.9,8.1c0.3,3.8,0.5,7.5,0.7,11.3c0,0.2,0.1,0.4,0.3,0.7c0.4,0.2,0.8,0.6,1.3,0.7
		c2.2,0.3,4.5,0.6,6.8,0.6c9.9,0.1,19.9,0,29.8,0c1.8,0,3.6,0,5.4,0c0.5,0,1.1-0.2,1.6-0.4c0-1.2,0.1-2.4,0-3.5
		c-0.1-1.5-0.3-3-0.5-4.5c-0.1-0.7-0.1-1.3-0.2-2c-0.3-3-0.7-6-0.9-9s-0.4-6-0.7-9c0-0.2,0-0.4-0.1-0.6c-0.1-1.4-0.3-2.8-0.4-4.2
		c-0.1-0.8-0.2-1.7-0.2-2.5c-0.1-0.9-0.2-1.9-0.3-2.8c-0.2-3.1-0.4-6.2-0.7-9.3c0-0.2-0.1-0.4-0.1-0.6c-0.1-1.3-0.3-2.6-0.4-3.9
		c-0.1-0.8-0.1-1.5-0.2-2.3c-0.1-1.4-0.3-2.8-0.4-4.2c-0.1-0.7-0.1-1.3-0.1-2c-0.1-1.5-0.3-3-0.4-4.5c-0.1-0.9-0.1-1.7-0.2-2.5
		c-0.1-1.1-0.3-2.2-0.4-3.4c-0.1-0.8,0-1.5-0.1-2.3c-0.3-2.6-0.7-5.2-0.9-7.9c-0.3-3.3-0.5-6.6-0.7-9.9c-0.1-1.2-0.3-2.4-1.1-3.6
		c-1,0-2.1-0.1-3.1-0.1c-3.1,0-6.2,0-9.4,0c-3.1-0.1-6.2-0.4-9.3-0.4c-46.8,0-93.5,0-140.3,0c-3.9,0-7.7,0.4-11.6,0.5
		c-0.2,0-0.4,0-0.6,0.1c-0.9,0.2-1.5,0.7-1.7,1.7c-0.1,0.4-0.1,0.8-0.1,1.1c-0.2,2.8-0.4,5.6-0.7,8.5c-0.3,2.6-0.7,5.2-1,7.9
		c-0.3,2.9-0.4,5.8-0.7,8.8c0,0.5-0.1,0.9-0.1,1.4c-0.3,2.9-0.7,5.8-1,8.7c-0.3,3.1-0.4,6.2-0.7,9.3c0,0.3-0.1,0.6-0.1,0.9
		c-0.1,1.4-0.3,2.8-0.4,4.2c-0.2,2.8-0.3,5.7-0.7,8.5c-0.2,1.6-0.3,3.2-0.5,4.8c-0.2,2.3-0.4,4.5-0.6,6.8c-0.3,3.2-0.7,6.4-1,9.6
		c-0.3,3.1-0.4,6.2-0.7,9.3c0,0.2-0.1,0.4-0.1,0.6c-0.3,3.3-0.7,6.6-1,9.9c-0.3,3.2-0.4,6.4-0.7,9.6c0,0.2-0.1,0.4-0.1,0.6
		c-0.3,3-0.7,6-0.9,9c-0.3,3.2-0.4,6.4-0.7,9.6c0,0.2-0.1,0.4-0.1,0.6c-0.3,3.2-0.7,6.4-1,9.6c-0.3,3.4-0.4,6.8-0.7,10.2
		c0,0.2,0,0.4-0.1,0.6c-0.7,2.5-0.4,5.1-0.5,7.6c0,0.5,0.3,1,0.5,1.7c1.3,0,2.6,0,3.8,0c47.1,0,94.1,0,141.2,0c1,0,1.9,0,2.8,0
		c0.5,0,1,0.2,1.6,0.4c0,0.9,0,1.6,0,2.4c-0.1,1.1-0.3,2.2-0.4,3.4c-0.2,2.1-0.4,4.1-0.7,6.2c-0.3,3-0.7,6-1,9
		c-0.3,3.2-0.4,6.4-0.6,9.6c0,0.4-0.1,0.8-0.2,1.1c-0.1,1-0.3,2.1-0.3,3.1c-0.2,2.9-0.4,5.8-0.7,8.8c-0.1,1.5-0.3,3-0.5,4.5
		c-0.2,1.8-0.4,3.6-0.7,5.3c-0.1,0.8-0.5,1.6-0.7,2.3c-4.6,2.2-31.9,9.6-48.4,13.2c-1.2-0.2-2.5-0.5-3.8-0.8
		c-4.3-1.1-8.6-2.2-12.9-3.3c-10.1-2.7-20.2-5.5-30.4-8.3c-0.4-0.1-0.8-0.4-1.3-0.7c-0.5-5.7-0.9-11.3-1.5-16.9
		c-0.6-5.7-0.8-11.4-1.9-17c-1.1-0.6-2.1-0.4-3.2-0.4c-7,0-14,0-21,0c-5.7,0-11.4,0-17,0c-0.8,0-1.7-0.2-2.4,0.4
		c-0.1,0.1-0.1,0.2-0.1,0.3c0,3.9-0.1,7.8,0.1,11.6c0.1,3.2,0.6,6.4,0.9,9.6c0.3,2.9,0.4,5.8,0.6,8.8c0,0.2,0.1,0.4,0.1,0.6
		c0.3,3.1,0.7,6.2,1,9.3c0.2,2.5,0.4,5.1,0.7,7.6c0.2,1.9,0.4,3.8,0.7,5.6c0.3,2.3,0.6,4.7,0.9,7C158.9,391.7,159.2,394.5,160,397.5
		z"/>
	<path class="st0" d="M312.8,3c0.3,1.8,0.5,14.1,0.3,16.5c0,0.4-0.2,0.7-0.4,1.1c-2.3,0.5-4.6,0.2-6.8,0.3c-2.4,0.1-4.7,0.3-7.1,0.4
		c-2.3,0.1-4.5,0.1-6.8,0.1c-2.3,0-4.5,0-6.8,0.1c-0.2,0.9,0.4,1.3,0.8,1.8c1.2,1.4,2.5,2.6,3.7,3.9c3.9,4.2,7.8,8.5,11.7,12.7
		c1.7,1.8,3.4,3.5,5.1,5.3c2.5,2.7,5,5.4,7.4,8.1c0.4,2.7,0.4,13.5-0.1,15.7c-0.4,0.1-0.8,0.4-1.2,0.4c-0.5,0.1-1.1,0.1-1.7,0.1
		c-18.9,0-37.8,0-56.8,0c-0.9,0-1.9,0.2-2.9-0.5c-0.1-0.3-0.2-0.8-0.2-1.2c-0.2-6.6-0.1-14,0.3-16.1c0.7-0.7,1.6-0.5,2.4-0.5
		c5.1,0,10.2,0,15.3,0c0.8,0,1.5,0,2.3,0c2.8-0.2,5.6-0.4,8.5-0.6c-0.1-0.3-0.1-0.7-0.2-0.9c-1.3-1.5-2.5-3-3.9-4.5
		c-5.3-5.8-10.5-11.6-15.8-17.4c-2.7-2.9-5.4-5.8-8.1-8.8c-0.2-0.3-0.5-0.6-0.8-1c0-4.9,0-9.9,0-14.9c0.5-0.2,0.8-0.5,1.2-0.5
		c0.9-0.1,1.7-0.1,2.6-0.1c18.3,0,36.5,0,54.8,0C310.5,2.7,311.6,2.4,312.8,3z"/>
	<path class="st0" d="M240.6,3c0.4,3,0.6,49,0.3,64.1c0,0.7-0.1,1.3-0.2,2c-0.6,0.2-1.1,0.4-1.6,0.5c-0.6,0.1-1.3,0-2,0
		c-15.9,0-31.8,0-47.7,0c-1.1,0-2.3,0.3-3.5-0.7c-0.1-0.6-0.2-1.3-0.2-2c-0.2-11.3-0.1-18,0.4-20.2c0.9-0.6,2-0.3,3-0.3
		c8.3,0,16.6,0,25,0c1,0,2.1,0,3.2-0.1c0.1-0.8,0.3-1.4,0.3-2c0-3,0-6,0-9.1c0-9.6,0-19.3,0-28.9c0-1-0.2-2.1,0.5-3.2
		c0.3-0.1,0.7-0.3,1.2-0.3c6.7,0,13.4,0,20.1,0C239.8,2.7,240.2,2.8,240.6,3z"/>
</g>
</svg>
