<?xml version="1.0" encoding="utf-8"?>
<!-- Generator: Adobe Illustrator 26.3.0, SVG Export Plug-In . SVG Version: 6.00 Build 0)  -->
<svg version="1.1" id="Capa_1" xmlns="http://www.w3.org/2000/svg" xmlns:xlink="http://www.w3.org/1999/xlink" x="0px" y="0px"
	 viewBox="0 0 500 471.24" style="enable-background:new 0 0 500 471.24;" xml:space="preserve">
<style type="text/css">
	.st0{fill:#02BAA7;}
	.st1{fill:#CECECE;}
</style>
<g>
	<g>
		<path class="st0" d="M18.85,79.23c0.62-3.29,1.22-6.59,1.87-9.88c0.34-1.72,0.77-3.42,1.19-5.24c2.38-0.11,3.5,0.83,3.54,3.03
			c0.04,2.44,0.04,4.88,0.02,7.32c-0.14,18.46,4.1,36.01,10.2,53.18c3.92,11.04,8.91,21.53,15.54,31.1
			c8.73,12.59,19.02,23.65,30.27,33.91c11.72,10.7,24.32,20.09,37.96,27.78c10.73,6.05,21.93,11.34,33.29,16.01
			c10.62,4.36,21.61,7.92,32.66,10.96c10.27,2.82,20.77,4.84,31.27,6.58c12.84,2.14,25.8,2.92,38.83,3.28
			c8.3,0.23,16.56-0.27,24.82-0.44c8.09-0.17,16.19-1.55,24.22-2.81c13.82-2.16,27.36-5.6,40.56-10.44
			c18.47-6.77,35.89-15.61,51.55-27.88c10.8-8.46,20.68-17.96,27.88-30.01c7.17-12.01,12.04-24.95,14.24-38.94
			c1.51-9.56,1.58-19.16-0.26-28.58c-2.17-11.12-6.8-21.25-13.62-30.22c-11.78-15.5-26.86-26.64-43.66-35.57
			c-16.17-8.6-33.04-15.08-50.92-18.43c-7.21-1.35-14.58-2.18-21.9-2.44c-8.13-0.28-16.27-0.43-24.43,0.76
			c-16.82,2.44-32.82,7.23-47.42,16.35c-5.21,3.26-10.38,6.78-14.96,10.91c-8.73,7.87-14.19,18.14-17.84,29.39
			c-1.89,5.83-3.15,11.89-4.74,17.82c-0.32,1.2-0.87,2.35-1.3,3.47c-3.05,0.2-3.47-1.65-3.35-3.74c0.3-5.18,0.34-10.41,1.16-15.5
			c2.76-17.14,10.39-31.76,21.53-44.72c14.56-16.93,32.58-27.74,53.52-33.55c6.32-1.75,12.87-2.63,19.31-3.95
			c0.58-0.12,1.1-0.55,1.64-0.83c11.32,0,22.64,0,33.97,0c0.55,0.28,1.06,0.73,1.64,0.83c7.39,1.32,14.84,2.3,22.17,3.91
			c20.97,4.61,41.1,11.6,59.77,22.8c17.96,10.77,33.75,24.09,46.46,41.16c10.78,14.47,18.56,30.43,22.3,48.39
			c0.42,2.02,0.96,4.01,1.45,6.01c0,8.47,0,16.93,0,25.4c-0.28,0.56-0.67,1.1-0.81,1.7c-1.08,4.73-1.87,9.54-3.19,14.2
			c-5.23,18.38-15.7,33.53-28.24,47.17c-10.42,11.34-22.43,20.76-35.35,28.87c-13.99,8.77-28.58,16.25-44.11,21.72
			c-13.84,4.87-27.95,8.55-42.32,11.22c-6.77,1.26-13.59,2.26-20.42,3.08c-5.12,0.62-10.3,0.76-15.45,1.18
			c-0.57,0.05-1.1,0.53-1.65,0.81c-15.1,0-30.19,0-45.29,0c-1.18-0.31-2.35-0.85-3.53-0.88c-9.09-0.25-18.09-1.35-27.03-2.99
			c-23.47-4.31-45.82-12.23-67.26-22.86c-8.75-4.34-17.37-9.01-25.86-13.88c-11.1-6.37-21.93-13.19-31.64-21.82
			c-10.15-9.02-19.43-18.91-28.03-29.46c-7.98-9.8-15.27-20.17-21.27-31.45c-7.68-14.41-14.62-29.11-17.32-45.56
			c-0.44-2.67-1.11-5.29-1.67-7.94C18.85,99.42,18.85,89.33,18.85,79.23z"/>
		<path class="st0" d="M213.66,121.12c-2.65-0.39-2.3-1.91-2.38-3.13c-0.46-7.26,0.65-14.29,3.31-20.99
			c5.86-14.75,15.41-26.17,28.67-34.45c10.28-6.42,21.34-9.99,33.13-11.74c16.94-2.53,33.43-0.02,49.78,4.38
			c14.22,3.83,27.76,9.32,40.09,17.77c18.43,12.62,32.77,28.85,40,50.76c5.62,17.01,4.49,33.89-3.27,50.17
			c-3.57,7.49-8.14,14.18-13.46,20.48c-9.23,10.91-20.42,19.04-32.35,26.37c-14.78,9.08-30.85,14.58-47.45,18.33
			c-10.52,2.38-21.22,4.19-32.08,4.4c-8.15,0.16-16.3,0.98-24.44,0.82c-22.6-0.44-44.51-4.62-65.54-13.56
			c-15.76-6.7-30.76-14.78-44.76-24.8c-8.56-6.13-16.13-13.45-22.6-21.91c-5.15-6.74-10.33-13.49-15.05-20.54
			c-6.31-9.41-10.98-19.74-13.94-30.79c-2.97-11.08-3.61-22.37-1.94-33.77c0.46-3.15,0.91-6.3,1.38-9.48
			c2.55,0.19,2.59,1.69,2.68,3.17c0.3,4.69,0.57,9.38,0.93,14.06c0.82,10.65,3.92,20.7,7.75,30.51
			c4.52,11.58,11.35,21.54,19.63,30.67c16.31,17.98,35.67,31.02,57.62,40.26c11.67,4.91,23.68,8.73,35.99,11.26
			c8.42,1.73,17.02,2.58,25.58,3.42c6.7,0.66,13.46,1.04,20.18,0.95c16.04-0.22,31.83-2.42,47.27-7.15
			c13.95-4.27,27.11-10.24,39.13-18.77c8.2-5.82,15.85-12.36,21.55-20.85c6.54-9.73,10.41-20.59,12.19-32.4
			c1.71-11.31-0.66-21.65-5.58-31.49c-4.25-8.49-10.68-15.27-17.99-20.94c-14.65-11.36-31.11-18.87-48.96-23.01
			c-10.15-2.35-20.52-3.4-30.85-2.4c-17.34,1.69-33.42,7.27-47.22,18.74c-4.11,3.42-7.23,7.81-9.41,12.65
			c-2.44,5.42-4.12,11.2-6.04,16.86C214.55,116.91,214.19,118.97,213.66,121.12z"/>
		<path class="st0" d="M227.62,131.68c-2.26-0.72-2.2-2.29-2.05-3.72c1.18-11.75,6.2-21.51,15.21-28.65
			c12.19-9.65,26.09-12.72,41.28-10.63c6.89,0.95,13.53,2.58,20.13,4.75c13.26,4.35,24.36,12.07,33.21,23.03
			c7.71,9.55,12.03,20.64,10.79,33.33c-0.86,8.77-4.47,16.5-9.88,23.33c-11.71,14.79-27.15,23.26-44.63,28.21
			c-7.86,2.23-15.86,3.79-24.06,4.03c-5.47,0.16-10.96,1.03-16.41,0.78c-12.39-0.57-24.56-2.4-36.28-7.15
			c-11.92-4.83-23.24-10.7-33.35-18.85c-8.51-6.86-15.29-15.38-20.81-24.93c-4.04-6.99-7.39-14.36-8.48-22.56
			c-0.87-6.6-0.88-13.2,1.26-20.48c1.78,3.35,1.8,6.37,2.06,9.23c1.32,14.57,6.47,27.22,16.39,37.88
			c7.71,8.29,16.27,15.3,26.15,20.5c9.27,4.88,19.09,8.38,29.27,10.55c9.98,2.13,20.09,3.7,30.32,3.1
			c18.41-1.08,35.97-5.13,51.45-16.33c7.79-5.64,13.88-12.48,17.32-21.83c5.85-15.9,2.21-29.68-10.76-40.4
			c-10.55-8.72-22.73-14.04-36-15.78c-13.35-1.76-26.27,0.39-38.04,7.95c-5.82,3.73-9.15,9.23-11.44,15.6
			C229.24,125.5,228.54,128.49,227.62,131.68z"/>
	</g>
</g>
<path class="st1" d="M57.27,348.57c4.49,4.49,6.74,9.92,6.74,16.27c0,6.29-2.33,11.76-6.98,16.42c-3.75,3.79-8.5,6.07-14.25,6.84
	H18.85v-69.28h22c4.53,0,8.31,1.52,11.36,4.57c3.05,3.05,4.57,6.63,4.57,10.74c0,4.14-1.49,7.69-4.48,10.64
	C53.37,345.03,55.02,346.3,57.27,348.57z M27.56,326.33v15.21h13.96c1.89-0.19,3.35-0.82,4.38-1.88c1.41-1.38,2.12-3.23,2.12-5.54
	c0-2.25-0.74-4.11-2.21-5.58c-1.48-1.48-3.15-2.21-5.01-2.21H27.56z M40.18,380.54c4.01,0,7.52-1.5,10.52-4.5s4.5-6.73,4.5-11.19
	s-1.5-8.2-4.5-11.22s-6.51-4.52-10.52-4.52H27.56v31.44h12.62V380.54z"/>
<path class="st1" d="M119.42,388.1h-8.71v-7.7c-3.43,5.91-8.67,8.86-15.69,8.86c-6.96,0-12.86-2.41-17.69-7.25
	c-4.83-4.83-7.25-10.54-7.25-17.11c0-6.64,2.41-12.37,7.25-17.19c4.83-4.81,10.73-7.22,17.69-7.22c7.03,0,12.26,2.92,15.69,8.76
	v-5.15h8.71V388.1z M110.7,368.36v-7.03c-0.61-3.18-2.07-5.92-4.38-8.23c-3.24-3.27-7.01-4.91-11.31-4.91
	c-4.33,0-8.09,1.61-11.26,4.81c-3.18,3.21-4.77,7.17-4.77,11.89c0,4.69,1.59,8.62,4.77,11.79c3.18,3.18,6.93,4.77,11.26,4.77
	c4.3,0,8.07-1.62,11.31-4.86C108.63,374.28,110.09,371.54,110.7,368.36z"/>
<path class="st1" d="M135.11,364.75v0.14c0,4.69,1.59,8.62,4.77,11.79c3.18,3.18,6.93,4.77,11.27,4.77c4.3,0,8.07-1.62,11.31-4.86
	c0.45-0.45,1.32-1.46,2.6-3.03l8.18,2.89c-1.22,2.05-2.63,3.87-4.24,5.44c-4.88,4.91-10.83,7.37-17.86,7.37
	c-6.96,0-12.86-2.41-17.69-7.25c-4.83-4.83-7.25-10.54-7.25-17.11c0-6.64,2.41-12.37,7.25-17.19c4.83-4.81,10.73-7.22,17.69-7.22
	c7.03,0,12.98,2.44,17.86,7.32c4.2,4.24,6.31,9.88,6.31,16.95h-40.2V364.75z M136.65,357.14h28.84c-2.05-5.97-6.84-8.95-14.35-8.95
	C143.6,348.19,138.77,351.17,136.65,357.14z"/>
<path class="st1" d="M200.73,352.19h-19.35v-7.51h33.36l-20.75,35.87h20.99v7.56h-34.95L200.73,352.19z"/>
<path class="st0" d="M276.89,377.27l2.94,2.6c-6.64,6.03-14.46,9.05-23.45,9.05c-9.66,0-17.88-3.39-24.67-10.18
	c-6.79-6.79-10.18-15.01-10.18-24.67c0-9.6,3.39-17.8,10.18-24.62s15.01-10.23,24.67-10.23c8.99,0,16.8,3.03,23.45,9.1l-2.94,2.6
	c-5.84-5.17-12.68-7.75-20.51-7.75c-8.54,0-15.83,3.02-21.88,9.05s-9.07,13.32-9.07,21.86c0,8.57,3.02,15.87,9.07,21.9
	s13.34,9.05,21.88,9.05C264.21,385.02,271.04,382.43,276.89,377.27z"/>
<path class="st0" d="M302.35,349.68c-2.73,0.42-5.41,2.15-8.04,5.2c-2.63,3.05-3.95,6.13-3.95,9.24v23.97h-3.85V346.3h3.85v9.05
	c1.6-4.2,4.89-7.33,9.87-9.39L302.35,349.68z"/>
<path class="st0" d="M312.68,332.64c0.75,0.74,1.13,1.62,1.13,2.65c0,1.09-0.38,2.01-1.13,2.74c-0.75,0.74-1.64,1.11-2.67,1.11
	c-1.06,0-1.97-0.37-2.72-1.11s-1.13-1.65-1.13-2.74c0-1.03,0.38-1.91,1.13-2.65s1.66-1.11,2.72-1.11
	C311.04,331.53,311.93,331.9,312.68,332.64z M311.89,346.31v41.79h-3.8v-41.79H311.89z"/>
<path class="st0" d="M333.21,365.67c-3.24-1.76-5.49-3.27-6.74-4.53c-1.96-1.96-2.94-4.32-2.94-7.08c0-2.76,0.98-5.13,2.94-7.1
	s4.32-2.96,7.08-2.96c2.76,0,5.05,0.92,6.88,2.74c1.76,1.77,2.65,3.79,2.65,6.07V353l-3.32,1.35c-0.29-2.15-0.96-3.77-2.02-4.86
	s-2.46-1.64-4.19-1.64c-1.7,0-3.16,0.61-4.38,1.83s-1.83,2.68-1.83,4.38s0.61,3.16,1.83,4.38c0.71,0.74,2.2,1.83,4.48,3.27
	c3.63,1.96,6.21,3.71,7.75,5.25c2.41,2.44,3.61,5.34,3.61,8.71c0,3.47-1.2,6.41-3.61,8.83c-2.41,2.42-5.33,3.63-8.76,3.63
	c-3.43,0-6.36-1.21-8.76-3.63c-2.41-2.42-3.61-5.08-3.61-7.97l3.8-0.96c0,2.47,0.84,4.55,2.53,6.23c1.68,1.68,3.7,2.53,6.04,2.53
	s4.36-0.84,6.07-2.53c1.7-1.69,2.55-3.73,2.55-6.14c0-2.34-0.85-4.35-2.55-6.02C337.8,368.76,335.97,367.43,333.21,365.67z"/>
<path class="st0" d="M358.68,346.31v-17.76h3.8v17.76H371v3.85h-8.52v37.94h-3.8v-37.94h-8.52v-3.85H358.68z"/>
<path class="st0" d="M382.87,332.64c0.75,0.74,1.13,1.62,1.13,2.65c0,1.09-0.38,2.01-1.13,2.74c-0.75,0.74-1.64,1.11-2.67,1.11
	c-1.06,0-1.97-0.37-2.72-1.11s-1.13-1.65-1.13-2.74c0-1.03,0.38-1.91,1.13-2.65s1.66-1.11,2.72-1.11
	C381.23,331.53,382.12,331.9,382.87,332.64z M382.08,346.31v41.79h-3.8v-41.79H382.08z"/>
<path class="st0" d="M437.54,388.1h-3.85v-8.52c-0.74,1-1.54,1.94-2.41,2.84c-4.56,4.59-10.08,6.88-16.56,6.88
	c-6.42,0-11.92-2.29-16.49-6.86c-4.57-4.57-6.86-10.07-6.86-16.49c0-6.48,2.29-12,6.86-16.56c4.57-4.56,10.07-6.84,16.49-6.84
	c6.48,0,12,2.28,16.56,6.84c0.87,0.9,1.67,1.85,2.41,2.84v-5.92h3.85V388.1z M433.68,369.71v-7.56c-0.71-3.75-2.47-7.04-5.3-9.87
	c-3.79-3.79-8.34-5.68-13.67-5.68c-5.33,0-9.88,1.89-13.65,5.68c-3.77,3.79-5.66,8.34-5.66,13.67c0,5.33,1.88,9.87,5.66,13.62
	c3.77,3.76,8.32,5.63,13.65,5.63s9.88-1.89,13.67-5.68C431.21,376.71,432.98,373.43,433.68,369.71z"/>
<path class="st0" d="M450.44,355.65v32.45h-3.85v-41.79h3.85v2.7c3.47-3.47,7.51-5.2,12.13-5.2c4.94,0,8.96,1.55,12.06,4.65
	s4.68,6.99,4.74,11.67v27.97h-3.8v-27.58c0-3.56-1.28-6.6-3.85-9.1s-5.62-3.75-9.15-3.75c-3.5,0-6.53,1.24-9.1,3.71
	C452.09,352.75,451.08,354.18,450.44,355.65z"/>
<g>
	<path class="st0" d="M24.93,408.96c3.51,0.02,6.24,1.01,8.18,2.97c2.08,2.1,3.13,4.62,3.13,7.54c0,2.95-1.06,5.5-3.19,7.63
		c-1.91,1.91-4.62,2.87-8.13,2.89h-4.44v-21.03L24.93,408.96L24.93,408.96z M23.13,411.3v16.37h1.78c2.61,0,4.66-0.72,6.15-2.16
		c1.65-1.65,2.47-3.66,2.47-6.04c0-2.36-0.82-4.37-2.47-6.04c-1.49-1.42-3.54-2.13-6.15-2.13L23.13,411.3L23.13,411.3z"/>
	<path class="st0" d="M62.84,412.82c0.36,0.35,0.53,0.73,0.53,1.16c0,0.45-0.18,0.84-0.53,1.19c-0.36,0.35-0.8,0.52-1.34,0.52
		c-0.56,0-1.01-0.17-1.36-0.52c-0.35-0.35-0.53-0.74-0.53-1.19c0-0.43,0.18-0.82,0.53-1.16s0.8-0.52,1.36-0.52
		C62.03,412.31,62.48,412.48,62.84,412.82z M62.8,416.63v13.36h-2.63v-13.36H62.8z"/>
	<path class="st0" d="M90.72,423.33c-0.99-0.55-1.68-1-2.05-1.37c-0.72-0.72-1.08-1.55-1.08-2.48c0-0.93,0.35-1.74,1.05-2.46
		c0.7-0.71,1.58-1.07,2.63-1.07s1.9,0.33,2.54,0.98c0.66,0.66,0.99,1.39,0.99,2.18v0.41l-2.37,0.96c-0.15-1.1-0.31-1.75-0.5-1.94
		s-0.41-0.29-0.67-0.29s-0.49,0.11-0.72,0.34c-0.22,0.22-0.34,0.52-0.34,0.89s0.13,0.68,0.38,0.94c0.17,0.17,0.55,0.45,1.15,0.83
		c1.1,0.6,1.9,1.15,2.41,1.65c0.8,0.82,1.2,1.78,1.2,2.89c0,1.14-0.41,2.13-1.24,2.97S92.26,430,91.01,430s-2.29-0.42-3.12-1.26
		s-1.25-1.89-1.25-3.14l2.63-0.66c0,1.13,0.18,1.88,0.54,2.24s0.76,0.54,1.2,0.54s0.84-0.18,1.21-0.54s0.55-0.83,0.55-1.4
		c0-0.56-0.19-1.02-0.58-1.4C91.94,424.15,91.46,423.8,90.72,423.33z"/>
	<path class="st0" d="M121.23,422.9v0.04c0,1.42,0.48,2.62,1.45,3.58c0.96,0.96,2.1,1.45,3.42,1.45c1.31,0,2.45-0.49,3.43-1.48
		c0.14-0.14,0.4-0.44,0.79-0.92l2.48,0.88c-0.37,0.62-0.8,1.17-1.29,1.65c-1.48,1.49-3.29,2.24-5.42,2.24c-2.11,0-3.9-0.73-5.37-2.2
		s-2.2-3.2-2.2-5.2c0-2.02,0.73-3.76,2.2-5.22c1.47-1.46,3.26-2.19,5.37-2.19c2.13,0,3.94,0.74,5.42,2.22
		c1.28,1.29,1.91,3,1.91,5.14h-12.19V422.9z M121.7,420.59h8.75c-0.62-1.81-2.08-2.72-4.35-2.72
		C123.81,417.87,122.34,418.78,121.7,420.59z"/>
	<path class="st0" d="M159.37,420.02v9.97h-2.65v-13.36h2.65c0.45-0.49,1.37-0.73,2.78-0.73c1.69,0,3.04,0.52,4.08,1.55
		c1.03,1.03,1.56,2.29,1.58,3.79v8.75h-2.63v-8.64c0-0.91-0.31-1.66-0.92-2.26s-1.32-0.9-2.1-0.9s-1.47,0.28-2.06,0.85
		C159.74,419.38,159.5,419.71,159.37,420.02z M161.27,413.83c-0.02,0.21-0.03,0.59-0.03,1.12l-2.44-0.53
		c0.02-0.69,0.07-1.17,0.16-1.43c0.22-0.68,0.64-1.15,1.26-1.4c0.21-0.1,0.45-0.15,0.72-0.15c0.57,0,1.23,0.27,1.97,0.8
		c0.14,0.1,0.25,0.17,0.34,0.23c0.01-0.21,0.01-0.58,0.01-1.1l2.47,0.48c-0.04,0.7-0.1,1.18-0.19,1.45
		c-0.21,0.68-0.64,1.16-1.27,1.43c-0.23,0.08-0.46,0.12-0.69,0.12c-0.58,0-1.24-0.27-1.99-0.8
		C161.46,413.96,161.35,413.88,161.27,413.83z"/>
	<path class="st0" d="M199.18,415.54c2.13,0,3.93,0.73,5.38,2.19c1.45,1.46,2.18,3.2,2.18,5.22c0,2-0.73,3.73-2.18,5.2
		s-3.24,2.2-5.38,2.2c-2.11,0-3.9-0.73-5.37-2.2s-2.2-3.2-2.2-5.2c0-2.02,0.73-3.76,2.2-5.22
		C195.28,416.27,197.07,415.54,199.18,415.54z M195.76,419.33c-0.96,0.97-1.45,2.18-1.45,3.61c0,1.42,0.48,2.62,1.45,3.58
		c0.96,0.96,2.1,1.45,3.42,1.45c1.31,0,2.44-0.48,3.41-1.45s1.45-2.16,1.45-3.58c0-1.43-0.48-2.64-1.45-3.61
		c-0.97-0.97-2.11-1.46-3.41-1.46C197.86,417.87,196.72,418.36,195.76,419.33z"/>
	<path class="st0" d="M277.34,427.12c-2.15,2.07-4.66,3.1-7.51,3.1c-3.06,0-5.64-1.05-7.75-3.16c-2.11-2.11-3.16-4.64-3.16-7.59
		c0-2.92,1.05-5.45,3.16-7.57s4.69-3.19,7.75-3.19c2.84,0,5.45,1.08,7.82,3.25l-1.84,1.64c-1.93-1.71-3.92-2.56-5.98-2.56
		c-2.24,0-4.18,0.82-5.81,2.45s-2.45,3.63-2.45,5.99c0,2.38,0.82,4.38,2.45,6.01s3.57,2.44,5.81,2.44c1.92,0,3.55-0.54,4.88-1.61
		v-6.4h2.63V427.12z"/>
	<path class="st0" d="M307.63,418.62c-1.21,0.18-2.14,0.67-2.81,1.44c-0.66,0.77-0.99,1.75-0.99,2.92v7.01h-2.65v-13.36h2.65v1.9
		c0.39-1.04,1.23-1.77,2.51-2.18L307.63,418.62z"/>
	<path class="st0" d="M345.76,429.99h-2.65v-2.34c-1.04,1.79-2.63,2.69-4.76,2.69c-2.11,0-3.91-0.73-5.37-2.2
		c-1.47-1.47-2.2-3.2-2.2-5.2c0-2.02,0.73-3.76,2.2-5.22s3.26-2.19,5.37-2.19c2.13,0,3.72,0.89,4.76,2.66v-1.56h2.65V429.99z
		 M343.12,424v-2.13c-0.18-0.96-0.63-1.8-1.33-2.5c-0.98-0.99-2.13-1.49-3.43-1.49c-1.32,0-2.46,0.49-3.42,1.46
		c-0.96,0.97-1.45,2.18-1.45,3.61c0,1.42,0.48,2.62,1.45,3.58c0.96,0.96,2.1,1.45,3.42,1.45c1.3,0,2.45-0.49,3.43-1.48
		C342.49,425.79,342.93,424.96,343.12,424z M343.16,411.38l-4.57,3.49h-2.76l3.04-3.49H343.16z"/>
	<path class="st0" d="M372.57,418.91v11.08h-2.65v-11.08h-1.23v-2.28h1.23v-2.73c0.07-1.04,0.48-1.95,1.23-2.72
		c0.85-0.78,1.83-1.17,2.94-1.17c0.86,0,1.65,0.18,2.37,0.53l-0.77,2.19c-0.59-0.34-1.09-0.51-1.49-0.51
		c-0.35,0-0.71,0.16-1.07,0.48c-0.34,0.35-0.53,0.78-0.56,1.3v2.63h2.48v2.28L372.57,418.91L372.57,418.91z"/>
	<path class="st0" d="M401.08,412.82c0.36,0.35,0.53,0.73,0.53,1.16c0,0.45-0.18,0.84-0.53,1.19c-0.36,0.35-0.8,0.52-1.34,0.52
		c-0.56,0-1.01-0.17-1.36-0.52c-0.35-0.35-0.53-0.74-0.53-1.19c0-0.43,0.18-0.82,0.53-1.16s0.8-0.52,1.36-0.52
		C400.27,412.31,400.72,412.48,401.08,412.82z M401.04,416.63v13.36h-2.63v-13.36H401.04z"/>
	<path class="st0" d="M436.5,425.72l2.51,0.92c-0.5,0.67-0.89,1.16-1.18,1.46c-1.48,1.49-3.29,2.24-5.42,2.24
		c-2.11,0-3.9-0.73-5.37-2.2s-2.2-3.2-2.2-5.21c0-2.01,0.73-3.74,2.2-5.2c1.47-1.46,3.26-2.19,5.37-2.19c2.13,0,3.92,0.72,5.36,2.16
		c0.33,0.33,0.75,0.83,1.24,1.5l-2.51,0.94c-0.35-0.44-0.59-0.73-0.72-0.86c-0.94-0.94-2.07-1.4-3.38-1.4s-2.44,0.48-3.41,1.45
		c-0.96,0.97-1.45,2.17-1.45,3.6c0,1.42,0.48,2.62,1.45,3.59c0.96,0.97,2.1,1.45,3.41,1.45s2.45-0.49,3.43-1.48
		C435.93,426.41,436.15,426.15,436.5,425.72z"/>
	<path class="st0" d="M469.71,415.54c2.13,0,3.93,0.73,5.38,2.19s2.18,3.2,2.18,5.22c0,2-0.73,3.73-2.18,5.2
		c-1.45,1.47-3.24,2.2-5.38,2.2c-2.11,0-3.91-0.73-5.37-2.2c-1.47-1.47-2.2-3.2-2.2-5.2c0-2.02,0.73-3.76,2.2-5.22
		C465.8,416.27,467.59,415.54,469.71,415.54z M466.29,419.33c-0.96,0.97-1.45,2.18-1.45,3.61c0,1.42,0.48,2.62,1.45,3.58
		c0.96,0.96,2.1,1.45,3.42,1.45c1.31,0,2.44-0.48,3.41-1.45s1.45-2.16,1.45-3.58c0-1.43-0.48-2.64-1.45-3.61
		c-0.97-0.97-2.11-1.46-3.41-1.46C468.39,417.87,467.25,418.36,466.29,419.33z"/>
</g>
<g>
	<path class="st0" d="M24.93,437.5c3.51,0.02,6.24,1.01,8.18,2.97c2.08,2.1,3.13,4.62,3.13,7.54c0,2.95-1.06,5.5-3.19,7.63
		c-1.91,1.91-4.62,2.87-8.13,2.89h-4.44V437.5H24.93z M23.13,439.84v16.37h1.78c2.61,0,4.66-0.72,6.15-2.16
		c1.65-1.65,2.47-3.66,2.47-6.04c0-2.36-0.82-4.37-2.47-6.04c-1.49-1.42-3.54-2.13-6.15-2.13L23.13,439.84L23.13,439.84z"/>
	<path class="st0" d="M46.96,451.44v0.04c0,1.42,0.48,2.62,1.45,3.58c0.96,0.96,2.1,1.45,3.42,1.45c1.31,0,2.45-0.49,3.43-1.48
		c0.14-0.14,0.4-0.44,0.79-0.92l2.48,0.88c-0.37,0.62-0.8,1.17-1.29,1.65c-1.48,1.49-3.29,2.24-5.42,2.24c-2.11,0-3.9-0.73-5.37-2.2
		s-2.2-3.2-2.2-5.2c0-2.02,0.73-3.76,2.2-5.22s3.26-2.19,5.37-2.19c2.13,0,3.94,0.74,5.42,2.22c1.28,1.29,1.91,3,1.91,5.14H46.96
		V451.44z M47.42,449.13h8.75c-0.62-1.81-2.08-2.72-4.35-2.72C49.53,446.41,48.07,447.32,47.42,449.13z"/>
	<path class="st0" d="M70.91,451.87c-0.99-0.55-1.68-1-2.05-1.37c-0.72-0.72-1.08-1.55-1.08-2.48c0-0.93,0.35-1.74,1.05-2.46
		c0.7-0.71,1.58-1.07,2.63-1.07s1.9,0.33,2.54,0.98c0.66,0.66,0.99,1.39,0.99,2.18v0.41l-2.37,0.96c-0.15-1.1-0.31-1.75-0.5-1.94
		s-0.41-0.29-0.67-0.29s-0.49,0.11-0.72,0.34c-0.22,0.22-0.34,0.52-0.34,0.89s0.13,0.68,0.38,0.94c0.17,0.17,0.55,0.45,1.15,0.83
		c1.1,0.6,1.9,1.15,2.41,1.65c0.8,0.82,1.2,1.78,1.2,2.89c0,1.14-0.41,2.13-1.24,2.97s-1.87,1.26-3.11,1.26
		c-1.25,0-2.29-0.42-3.12-1.26s-1.25-1.89-1.25-3.14l2.63-0.66c0,1.13,0.18,1.88,0.54,2.24s0.76,0.54,1.2,0.54s0.84-0.18,1.21-0.54
		s0.55-0.83,0.55-1.4c0-0.56-0.19-1.02-0.58-1.4C72.14,452.69,71.65,452.34,70.91,451.87z"/>
	<path class="st0" d="M99.06,458.53h-2.65v-2.34c-1.04,1.79-2.63,2.69-4.76,2.69c-2.11,0-3.9-0.73-5.37-2.2s-2.2-3.2-2.2-5.2
		c0-2.02,0.73-3.76,2.2-5.22c1.47-1.46,3.26-2.19,5.37-2.19c2.13,0,3.72,0.89,4.76,2.66v-1.56h2.65V458.53z M96.42,452.54v-2.13
		c-0.19-0.96-0.63-1.8-1.33-2.5c-0.98-0.99-2.13-1.49-3.43-1.49c-1.32,0-2.46,0.49-3.42,1.46s-1.45,2.18-1.45,3.61
		c0,1.42,0.48,2.62,1.45,3.58c0.96,0.96,2.1,1.45,3.42,1.45c1.31,0,2.45-0.49,3.43-1.48C95.79,454.33,96.23,453.5,96.42,452.54z"/>
	<path class="st0" d="M114.28,447.16c-1.21,0.18-2.14,0.67-2.81,1.44c-0.66,0.77-0.99,1.75-0.99,2.92v7.01h-2.65v-13.36h2.65v1.9
		c0.39-1.04,1.23-1.77,2.51-2.18L114.28,447.16z"/>
	<path class="st0" d="M128.96,447.16c-1.21,0.18-2.14,0.67-2.81,1.44c-0.66,0.77-0.99,1.75-0.99,2.92v7.01h-2.65v-13.36h2.65v1.9
		c0.39-1.04,1.23-1.77,2.51-2.18L128.96,447.16z"/>
	<path class="st0" d="M144.68,444.08c2.13,0,3.93,0.73,5.38,2.19c1.45,1.46,2.18,3.2,2.18,5.22c0,2-0.73,3.73-2.18,5.2
		s-3.24,2.2-5.38,2.2c-2.11,0-3.9-0.73-5.37-2.2s-2.2-3.2-2.2-5.2c0-2.02,0.73-3.76,2.2-5.22S142.57,444.08,144.68,444.08z
		 M141.26,447.88c-0.96,0.97-1.45,2.18-1.45,3.61c0,1.42,0.48,2.62,1.45,3.58c0.96,0.96,2.1,1.45,3.42,1.45
		c1.31,0,2.44-0.48,3.41-1.45s1.45-2.16,1.45-3.58c0-1.43-0.48-2.64-1.45-3.61c-0.97-0.97-2.11-1.46-3.41-1.46
		C143.37,446.41,142.23,446.9,141.26,447.88z"/>
	<path class="st0" d="M163.89,437.5v21.03h-2.65V437.5H163.89z"/>
	<path class="st0" d="M176.1,437.5v21.03h-2.65V437.5H176.1z"/>
	<path class="st0" d="M192.67,444.08c2.13,0,3.93,0.73,5.38,2.19c1.45,1.46,2.18,3.2,2.18,5.22c0,2-0.73,3.73-2.18,5.2
		s-3.24,2.2-5.38,2.2c-2.11,0-3.9-0.73-5.37-2.2s-2.2-3.2-2.2-5.2c0-2.02,0.73-3.76,2.2-5.22S190.56,444.08,192.67,444.08z
		 M189.25,447.88c-0.96,0.97-1.45,2.18-1.45,3.61c0,1.42,0.48,2.62,1.45,3.58c0.96,0.96,2.1,1.45,3.42,1.45
		c1.31,0,2.44-0.48,3.41-1.45s1.45-2.16,1.45-3.58c0-1.43-0.48-2.64-1.45-3.61c-0.97-0.97-2.11-1.46-3.41-1.46
		C191.36,446.41,190.22,446.9,189.25,447.88z"/>
	<path class="st0" d="M234.45,442.76l4.25,10.98l4.36-16.24h2.67l-5.64,21.03h-2.31l-4.21-11.08l-4.22,11.08h-2.31l-5.64-21.03h2.69
		l4.37,16.24l4.22-10.98H234.45z"/>
	<path class="st0" d="M254.47,451.44v0.04c0,1.42,0.48,2.62,1.45,3.58c0.97,0.96,2.1,1.45,3.42,1.45c1.3,0,2.45-0.49,3.43-1.48
		c0.14-0.14,0.4-0.44,0.79-0.92l2.49,0.88c-0.37,0.62-0.8,1.17-1.29,1.65c-1.48,1.49-3.29,2.24-5.42,2.24c-2.11,0-3.9-0.73-5.37-2.2
		s-2.2-3.2-2.2-5.2c0-2.02,0.73-3.76,2.2-5.22s3.26-2.19,5.37-2.19c2.13,0,3.94,0.74,5.42,2.22c1.28,1.29,1.91,3,1.91,5.14h-12.2
		V451.44z M254.94,449.13h8.75c-0.62-1.81-2.08-2.72-4.36-2.72C257.05,446.41,255.58,447.32,254.94,449.13z"/>
	<path class="st0" d="M274.99,437.5h2.64v9.21c1.04-1.75,2.63-2.63,4.75-2.63s3.92,0.73,5.38,2.19s2.19,3.2,2.19,5.22
		c0,2-0.73,3.73-2.19,5.2s-3.25,2.2-5.38,2.2s-3.71-0.88-4.75-2.65v2.29h-2.64V437.5z M277.64,450.36v2.25
		c0.18,0.94,0.63,1.76,1.36,2.48c0.96,0.95,2.08,1.42,3.39,1.42s2.44-0.48,3.41-1.45c0.97-0.96,1.45-2.16,1.45-3.58
		c0-1.43-0.49-2.64-1.45-3.61c-0.97-0.97-2.11-1.46-3.41-1.46s-2.46,0.5-3.45,1.49C278.25,448.6,277.81,449.42,277.64,450.36z"/>
	<path class="st0" d="M322.99,437.5v2.29h-7.56v7.07h7.56v2.29h-7.56v9.37h-2.65V437.5H322.99z"/>
	<path class="st0" d="M337.14,447.16c-1.21,0.18-2.14,0.67-2.81,1.44c-0.66,0.77-0.99,1.75-0.99,2.92v7.01h-2.65v-13.36h2.65v1.9
		c0.39-1.04,1.23-1.77,2.51-2.18L337.14,447.16z"/>
	<path class="st0" d="M352.87,444.08c2.13,0,3.93,0.73,5.38,2.19s2.18,3.2,2.18,5.22c0,2-0.73,3.73-2.18,5.2
		c-1.45,1.47-3.24,2.2-5.38,2.2c-2.11,0-3.91-0.73-5.37-2.2c-1.47-1.47-2.2-3.2-2.2-5.2c0-2.02,0.73-3.76,2.2-5.22
		S350.76,444.08,352.87,444.08z M349.45,447.88c-0.96,0.97-1.45,2.18-1.45,3.61c0,1.42,0.48,2.62,1.45,3.58
		c0.96,0.96,2.1,1.45,3.42,1.45c1.31,0,2.44-0.48,3.41-1.45s1.45-2.16,1.45-3.58c0-1.43-0.48-2.64-1.45-3.61
		c-0.97-0.97-2.11-1.46-3.41-1.46C351.56,446.41,350.42,446.9,349.45,447.88z"/>
	<path class="st0" d="M371.92,448.56v9.97h-2.64v-13.36h2.64c0.45-0.49,1.37-0.73,2.78-0.73c1.69,0,3.04,0.52,4.08,1.55
		c1.03,1.03,1.56,2.29,1.58,3.79v8.75h-2.63v-8.64c0-0.91-0.31-1.66-0.92-2.26c-0.61-0.6-1.32-0.9-2.1-0.9s-1.47,0.28-2.06,0.85
		C372.29,447.92,372.05,448.25,371.92,448.56z"/>
	<path class="st0" d="M391.09,445.17v-5.19h2.63v5.19h2.48v2.28h-2.48v11.08h-2.63v-11.08h-2.48v-2.28H391.09z"/>
	<path class="st0" d="M403.2,449.45h8.54v2.29h-8.54V449.45z"/>
	<path class="st0" d="M431.86,437.5v2.29h-8.8v7.07h8.8v2.29h-8.8v7.07h8.8v2.29h-11.44V437.5H431.86z"/>
	<path class="st0" d="M443.93,448.56v9.97h-2.64v-13.36h2.64c0.45-0.49,1.37-0.73,2.78-0.73c1.69,0,3.04,0.52,4.08,1.55
		c1.03,1.03,1.56,2.29,1.58,3.79v8.75h-2.63v-8.64c0-0.91-0.31-1.66-0.92-2.26c-0.61-0.6-1.32-0.9-2.1-0.9s-1.47,0.28-2.06,0.85
		C444.31,447.92,444.07,448.25,443.93,448.56z"/>
	<path class="st0" d="M476.22,458.53h-2.65v-2.34c-1.04,1.79-2.63,2.69-4.76,2.69c-2.11,0-3.91-0.73-5.37-2.2
		c-1.47-1.47-2.2-3.2-2.2-5.2c0-2.02,0.73-3.76,2.2-5.22s3.26-2.19,5.37-2.19c2.13,0,3.72,0.89,4.76,2.66v-9.24h2.65V458.53z
		 M473.58,452.54v-2.13c-0.18-0.96-0.63-1.8-1.33-2.5c-0.98-0.99-2.13-1.49-3.43-1.49c-1.32,0-2.46,0.49-3.42,1.46
		c-0.96,0.97-1.45,2.18-1.45,3.61c0,1.42,0.48,2.62,1.45,3.58c0.96,0.96,2.1,1.45,3.42,1.45c1.3,0,2.45-0.49,3.43-1.48
		C472.95,454.33,473.39,453.5,473.58,452.54z"/>
</g>
<rect x="18.86" y="398.68" class="st1" width="460.52" height="3.72"/>
</svg>
