<?xml version="1.0" encoding="utf-8"?>
<!-- Generator: Adobe Illustrator 26.3.0, SVG Export Plug-In . SVG Version: 6.00 Build 0)  -->
<svg version="1.1" id="Capa_1" xmlns="http://www.w3.org/2000/svg" xmlns:xlink="http://www.w3.org/1999/xlink" x="0px" y="0px"
	 viewBox="0 0 500 500" style="enable-background:new 0 0 500 500;" xml:space="preserve">
<style type="text/css">
	.st0{fill:#E8E8E8;}
	.st1{fill:#999999;}
	.st2{fill:#FBAF18;}
	.st3{fill:#F69522;}
</style>
<path class="st0" d="M106.5,33.8c2.2,1.1,4.4,2.3,6.7,3.2c12.7,4.6,25.5,9.2,38.2,13.6c10.6,3.7,21.3,7.1,31.9,10.7
	c1.2,0.4,2.3,1.1,4.2,2.1c-24.6,70.6-49,140.9-73.7,211.8c9.6,3.2,18.7,6,27.7,9.2c8.2,2.9,16.3,6.2,24.4,9.4c-0.1,1-0.2,2-0.3,3.3
	c-12.7,0-24.9,0.3-37.1-0.1c-12.1-0.4-24.2,0.9-36.4-1.2c-8.4-1.5-17.2-0.4-25.9-1.7c-9-1.4-18.3-1.3-27.5-1.8c-0.5,0-1.1,0.1-1.6,0
	c-7.2-2.8-15-1.1-22.3-3.2c0.8-3.6,1.2-7.3,2.4-10.7c4.3-12.1,8.8-24,12.5-36.3c3.2-10.7,7.8-21,11.4-31.6
	c5.4-15.5,9.8-31.3,15.8-46.6c8.8-22.6,15.8-45.9,24.2-68.7c4.5-12.3,8.6-24.7,12.9-37c2.3-6.6,4.7-13.2,7-19.8
	c0.5-1.5,0.4-3.1,0.6-4.7C103.3,33.8,104.9,33.8,106.5,33.8z"/>
<path class="st0" d="M500,171.9c-1,1.5-2.4,2.8-2.9,4.4c-5.1,14.8-10.1,29.7-15.1,44.6c-0.1,0.4-0.8,0.6-1.2,0.9
	c-0.4-0.6-0.8-1.2-1.2-1.7c-10.3,4.8-20.3,9.7-30.4,14.3c-16.6,7.6-33.5,14.6-50.8,20.4c-8.3,2.7-16.4,6.1-25.2,7.1
	c1-3.5,1.8-7,3-10.4c2.8-8.5,5.8-16.9,8.9-25.9c-37.3-14.3-75.1-26.2-112.9-40c0-30.9,0-62.1,0-93.4c3.6-2.2,6.7,0.5,9.6,1.4
	c11.4,3.7,22.6,8.1,34,12.2c11.6,4.1,23.2,8.2,34.8,12.2c18,6.3,36,12.6,54,18.9c14.1,4.9,28.1,9.8,42.2,14.7
	c17.7,6.2,35.5,12.5,53.2,18.8C500,170.9,500,171.4,500,171.9z"/>
<path class="st1" d="M373.2,261.9c8.8-0.9,16.9-4.3,25.2-7.1c17.4-5.7,34.2-12.8,50.8-20.4c10.1-4.6,20.1-9.5,30.4-14.3
	c0.3,0.5,0.8,1.1,1.2,1.7c-2.8,8.2-5.4,16.4-8.3,24.6c-8.2,23.9-16.5,47.7-24.8,71.5c-8.5,24.3-17.2,48.6-25.6,72.9
	c-8.6,24.8-17.1,49.7-25.9,75.3c-28.1-9-55.6-19.3-84.1-28.6c3.9-11.5,7.6-22.9,11.6-34.2c8.5-24.3,17-48.6,25.5-73
	C357.1,307.6,365.2,284.8,373.2,261.9z"/>
<path class="st1" d="M14.9,289.2c7.3,2.1,15.1,0.3,22.3,3.2c0.5,0.2,1.1,0,1.6,0c9.2,0.5,18.5,0.4,27.5,1.8
	c8.7,1.3,17.5,0.2,25.9,1.7c12.2,2.2,24.3,0.9,36.4,1.2c12.2,0.4,24.4,0.1,37.1,0.1c0.1-1.4,0.2-2.4,0.3-3.3
	c19.8,7.1,39.6,14.1,59.4,21.2c0.5,0.2,0.8,0.7,1.4,1.2c0,30.2,0,60.6,0,92c-2.1-0.4-4.1-0.4-5.9-1.1c-12.2-4.3-24.3-8.8-36.5-13
	c-15.9-5.5-31.9-10.8-47.8-16.3c-23.9-8.2-47.7-16.6-71.6-24.9c-20.1-7-40.3-13.8-60.4-20.8c-1.5-0.5-2.8-1.5-4.7-2.5
	C5,316.2,9.9,302.7,14.9,289.2z"/>
<path class="st2" d="M257.4,287.6c-9.8-3.6-19.5-7.1-29.3-10.8c-16.1-6-32.1-12.1-48.2-18.2c-7.8-3-15.4-6.1-23.1-9.2
	c2.1-7,3.4-13.6,6.1-19.6c3.9-8.6,6.3-17.6,9.4-26.4c5-14,9.8-28,14.6-42c4.3-12.3,8.5-24.6,12.8-36.9c6.5-18.4,13.1-36.8,19.5-55.2
	c4-11.3,7.7-22.6,11.6-34c1.3,0.2,2.3,0.3,3.8,0.5c0,2.6,0,5,0,7.3c0.1,22.5-0.7,45,0.4,67.4c1.6,31.7,1.1,63.5,1.5,96.1
	c16.2,6.7,33.2,12.3,50.1,18.3c16.8,6,33.6,12.3,51,18.6c0,0.9,0.3,2.3,0,3.4c-2.9,9.1-5.9,18.2-8.9,27.3c0,0.2-0.5,0.2-0.7,0.3
	c-3.4,1.1-6.8,2.9-10.3,3.1c-12.5,0.7-24.1,5.5-36.5,6.8C273.4,285.5,265.5,287.2,257.4,287.6z"/>
<path class="st3" d="M257.4,287.6c8-0.4,16-2.1,23.9-3c12.4-1.3,24-6.1,36.5-6.8c3.5-0.2,6.8-2,10.3-3.1c-6,18.6-12,37.1-17.9,55.8
	c-5.4,16.9-10,33.9-16,50.6c-6.4,17.9-11.8,36.1-17.9,54.2c-2.9,8.6-5.6,17.2-8.8,27.2c-1-2.1-1.8-3.1-1.9-4
	c-0.6-15.4-0.4-30.9-1.9-46.2c-1.7-16.5,0.1-33.1-1.7-49.4c-1.7-15.7-0.6-31.4-1.4-47c-0.4-8.2-0.9-16.4-1.5-24.6
	C258.9,289.9,258,288.8,257.4,287.6z"/>
</svg>
