<?xml version="1.0" encoding="utf-8"?>
<!-- Generator: Adobe Illustrator 26.3.0, SVG Export Plug-In . SVG Version: 6.00 Build 0)  -->
<svg version="1.1" id="Capa_1" xmlns="http://www.w3.org/2000/svg" xmlns:xlink="http://www.w3.org/1999/xlink" x="0px" y="0px"
	 viewBox="0 0 500 500" style="enable-background:new 0 0 500 500;" xml:space="preserve">
<style type="text/css">
	.st0{fill:#E8E8E8;}
	.st1{fill:#999999;}
	.st2{fill:#FBAF18;}
	.st3{fill:#F69522;}
</style>
<path class="st0" d="M133.85,5c1.82,0.87,3.59,1.9,5.48,2.58c10.34,3.75,20.68,7.47,31.07,11.08c8.6,2.99,17.27,5.8,25.89,8.72
	c0.98,0.33,1.86,0.93,3.39,1.71c-19.95,57.34-39.83,114.48-59.87,172.1c7.77,2.57,15.19,4.88,22.51,7.48
	c6.68,2.37,13.24,5.07,19.85,7.62c-0.07,0.8-0.15,1.6-0.25,2.71c-10.31,0-20.25,0.24-30.16-0.07c-9.84-0.3-19.66,0.77-29.56-1.01
	c-6.84-1.23-14-0.3-21.05-1.38c-7.35-1.12-14.89-1.03-22.34-1.47c-0.43-0.03-0.92,0.12-1.29-0.03c-5.83-2.31-12.18-0.93-18.1-2.59
	c0.63-2.89,0.94-5.9,1.93-8.66c3.52-9.8,7.17-19.53,10.19-29.52c2.63-8.7,6.32-17.08,9.29-25.68c4.35-12.59,7.99-25.45,12.82-37.85
	c7.16-18.39,12.87-37.27,19.63-55.79c3.63-9.97,7.01-20.03,10.51-30.04c1.88-5.37,3.85-10.72,5.67-16.11
	c0.4-1.19,0.34-2.53,0.49-3.81C131.24,5,132.54,5,133.85,5z"/>
<path class="st0" d="M453.55,117.22c-0.8,1.19-1.91,2.27-2.37,3.57c-4.15,12.05-8.18,24.15-12.29,36.22
	c-0.11,0.32-0.63,0.5-0.95,0.75c-0.33-0.49-0.67-0.99-0.94-1.39c-8.34,3.94-16.46,7.89-24.68,11.64
	c-13.51,6.17-27.21,11.9-41.31,16.56c-6.72,2.22-13.32,4.99-20.47,5.74c0.79-2.83,1.48-5.7,2.41-8.48c2.29-6.87,4.7-13.7,7.23-21.05
	c-30.33-11.58-61.04-21.29-91.69-32.49c0-25.12,0-50.45,0-75.88c2.9-1.81,5.46,0.42,7.8,1.16c9.3,2.98,18.4,6.59,27.61,9.88
	c9.41,3.36,18.86,6.63,28.29,9.93c14.62,5.12,29.25,10.23,43.87,15.33c11.42,3.99,22.85,7.94,34.26,11.95
	c14.42,5.06,28.82,10.17,43.23,15.25C453.55,116.35,453.55,116.79,453.55,117.22z"/>
<path class="st1" d="M350.54,190.31c7.15-0.75,13.75-3.52,20.47-5.74c14.11-4.66,27.8-10.39,41.31-16.56
	c8.22-3.75,16.34-7.7,24.68-11.64c0.27,0.41,0.61,0.9,0.94,1.39c-2.24,6.67-4.42,13.36-6.72,20c-6.7,19.38-13.41,38.75-20.18,58.1
	c-6.91,19.76-13.95,39.48-20.83,59.25c-7.01,20.16-13.89,40.36-21.04,61.17c-22.86-7.3-45.21-15.64-68.32-23.23
	c3.14-9.33,6.19-18.59,9.39-27.81c6.87-19.77,13.8-39.52,20.73-59.28C337.48,227.41,344.02,208.87,350.54,190.31z"/>
<path class="st1" d="M59.4,212.46c5.91,1.67,12.27,0.28,18.1,2.59c0.38,0.15,0.86,0.01,1.29,0.03c7.46,0.43,14.99,0.34,22.34,1.47
	c7.05,1.08,14.21,0.15,21.05,1.38c9.9,1.78,19.72,0.7,29.56,1.01c9.92,0.31,19.85,0.07,30.16,0.07c0.1-1.11,0.18-1.91,0.25-2.71
	c16.1,5.73,32.19,11.46,48.28,17.22c0.37,0.13,0.65,0.53,1.17,0.98c0,24.55,0,49.27,0,74.73c-1.71-0.3-3.32-0.36-4.78-0.87
	c-9.89-3.47-19.72-7.13-29.62-10.56c-12.92-4.48-25.9-8.76-38.83-13.21c-19.4-6.69-38.76-13.49-58.15-20.19
	c-16.36-5.66-32.74-11.24-49.1-16.9c-1.19-0.41-2.24-1.21-3.79-2.07C51.36,234.44,55.38,223.45,59.4,212.46z"/>
<path class="st2" d="M256.47,211.19c-7.93-2.92-15.88-5.8-23.8-8.77c-13.05-4.89-26.1-9.8-39.13-14.78
	c-6.31-2.41-12.55-4.98-18.73-7.44c1.7-5.66,2.73-11.07,4.92-15.94c3.14-6.98,5.09-14.31,7.66-21.45
	c4.08-11.34,7.94-22.75,11.9-34.13c3.47-9.98,6.91-19.98,10.43-29.95c5.27-14.96,10.63-29.89,15.87-44.85
	c3.21-9.15,6.27-18.35,9.43-27.62c1.09,0.15,1.9,0.26,3.06,0.42c0,2.14-0.01,4.06,0,5.97c0.06,18.26-0.56,36.54,0.35,54.76
	c1.28,25.79,0.89,51.57,1.18,78.08c13.17,5.48,27,9.98,40.69,14.85c13.67,4.86,27.26,9.96,41.42,15.15c0,0.75,0.25,1.85-0.04,2.78
	c-2.35,7.43-4.8,14.82-7.24,22.22c-0.04,0.13-0.38,0.17-0.59,0.25c-2.78,0.87-5.52,2.35-8.33,2.52
	c-10.13,0.59-19.58,4.47-29.64,5.56C269.43,209.49,263.01,210.86,256.47,211.19z"/>
<path class="st3" d="M256.47,211.19c6.54-0.33,12.96-1.71,19.41-2.4c10.06-1.09,19.52-4.96,29.64-5.56
	c2.82-0.16,5.56-1.64,8.33-2.52c-4.87,15.1-9.77,30.18-14.58,45.3c-4.36,13.69-8.15,27.58-13.02,41.09
	c-5.24,14.55-9.62,29.36-14.54,44c-2.34,6.96-4.52,13.97-7.14,22.07c-0.82-1.73-1.48-2.5-1.52-3.29c-0.52-12.51-0.3-25.1-1.58-37.52
	c-1.38-13.4,0.11-26.86-1.35-40.14c-1.4-12.76-0.5-25.48-1.12-38.2c-0.33-6.66-0.74-13.31-1.24-19.95
	C257.69,213.08,256.92,212.15,256.47,211.19z"/>
<g>
	<path class="st3" d="M96.39,486.87H80.55v-63.53H56.68v-15.9h63.53v15.9H96.39V486.87z"/>
	<path class="st3" d="M176.65,486.87h-18.5l-11.8-18.17l-11.91,18.17h-18.5l21.66-30.41l-21.66-29.25h18.5l11.91,17l11.8-17h18.5
		l-21.71,29.25L176.65,486.87z"/>
	<path class="st3" d="M248.71,486.87h-15.84v-63.53H209v-15.9h63.53v15.9h-23.82V486.87z"/>
	<path class="st3" d="M293.63,472.35c0.59,0.19,1.18,0.3,1.77,0.36c0.59,0.05,1.18,0.08,1.77,0.08c1.48,0,2.9-0.2,4.26-0.61
		s2.65-0.99,3.85-1.75c1.2-0.76,2.27-1.68,3.21-2.77c0.94-1.09,1.71-2.3,2.3-3.63l11.08,11.13c-1.4,1.99-3.02,3.79-4.85,5.37
		c-1.83,1.59-3.8,2.94-5.93,4.04c-2.12,1.11-4.36,1.95-6.7,2.52c-2.35,0.57-4.75,0.86-7.23,0.86c-4.17,0-8.1-0.78-11.77-2.33
		c-3.67-1.55-6.89-3.71-9.64-6.48c-2.75-2.77-4.92-6.06-6.51-9.89c-1.59-3.82-2.38-8.02-2.38-12.6c0-4.69,0.79-8.97,2.38-12.85
		c1.59-3.88,3.76-7.18,6.51-9.92c2.75-2.73,5.96-4.86,9.64-6.37c3.67-1.51,7.6-2.27,11.77-2.27c2.47,0,4.89,0.3,7.26,0.89
		s4.61,1.44,6.73,2.55c2.12,1.11,4.11,2.46,5.95,4.07c1.85,1.61,3.47,3.41,4.88,5.4L293.63,472.35z M301.39,441.17
		c-0.7-0.26-1.39-0.42-2.08-0.5c-0.68-0.07-1.39-0.11-2.13-0.11c-2.07,0-4.02,0.38-5.84,1.14c-1.83,0.76-3.42,1.84-4.76,3.24
		c-1.35,1.4-2.41,3.09-3.18,5.07c-0.78,1.98-1.16,4.2-1.16,6.67c0,0.55,0.03,1.18,0.08,1.88c0.05,0.7,0.15,1.41,0.28,2.13
		c0.13,0.72,0.29,1.41,0.47,2.08s0.42,1.26,0.72,1.77L301.39,441.17z"/>
	<path class="st3" d="M380.98,439.34l-11.08,11.13c-0.55-1.55-1.31-2.94-2.27-4.18c-0.96-1.24-2.04-2.28-3.24-3.13
		c-1.2-0.85-2.5-1.5-3.9-1.94c-1.4-0.44-2.84-0.67-4.32-0.67c-2.07,0-4.02,0.42-5.84,1.27s-3.42,2.04-4.76,3.57
		s-2.41,3.35-3.18,5.46c-0.78,2.1-1.16,4.43-1.16,6.98c0,2.07,0.39,4.01,1.16,5.82c0.78,1.81,1.84,3.4,3.18,4.76
		c1.35,1.37,2.94,2.44,4.76,3.21s3.78,1.16,5.84,1.16c1.48,0,2.9-0.2,4.26-0.61c1.37-0.41,2.65-0.99,3.85-1.75
		c1.2-0.76,2.27-1.68,3.21-2.77c0.94-1.09,1.71-2.3,2.3-3.63l11.08,11.13c-1.4,1.99-3.02,3.79-4.85,5.37
		c-1.83,1.59-3.8,2.94-5.93,4.04c-2.12,1.11-4.36,1.95-6.7,2.52s-4.75,0.86-7.23,0.86c-4.17,0-8.1-0.78-11.77-2.35
		c-3.67-1.57-6.89-3.72-9.64-6.45c-2.75-2.73-4.92-5.93-6.51-9.58c-1.59-3.66-2.38-7.57-2.38-11.74c0-4.54,0.79-8.79,2.38-12.74
		c1.59-3.95,3.76-7.39,6.51-10.33s5.96-5.25,9.64-6.95c3.67-1.7,7.6-2.55,11.77-2.55c2.47,0,4.9,0.31,7.28,0.94
		c2.38,0.63,4.65,1.54,6.81,2.74c2.16,1.2,4.15,2.67,5.98,4.4C378.07,435.1,379.65,437.09,380.98,439.34z"/>
	<path class="st3" d="M403.47,486.87h-15.12v-82.92h15.12v26.2c1.81-1.37,3.67-2.33,5.59-2.91c1.92-0.57,3.88-0.86,5.87-0.86
		c3.66,0,7.09,0.69,10.3,2.08c3.21,1.38,6.01,3.29,8.39,5.71c2.38,2.42,4.26,5.24,5.65,8.47c1.38,3.23,2.08,6.67,2.08,10.33v33.9
		h-15.23v-33.9h0.11c0-1.55-0.3-3.02-0.89-4.4c-0.59-1.38-1.4-2.59-2.44-3.63c-1.03-1.03-2.23-1.85-3.6-2.44
		c-1.37-0.59-2.83-0.89-4.38-0.89c-1.59,0-3.08,0.3-4.49,0.89c-1.4,0.59-2.62,1.4-3.66,2.44c-1.03,1.03-1.85,2.24-2.44,3.63
		c-0.59,1.38-0.89,2.85-0.89,4.4V486.87z"/>
</g>
</svg>
