<?xml version="1.0" encoding="utf-8"?>
<!-- Generator: Adobe Illustrator 26.3.0, SVG Export Plug-In . SVG Version: 6.00 Build 0)  -->
<svg version="1.1" id="Capa_1" xmlns="http://www.w3.org/2000/svg" xmlns:xlink="http://www.w3.org/1999/xlink" x="0px" y="0px"
	 viewBox="0 0 500 500" style="enable-background:new 0 0 500 500;" xml:space="preserve">
<style type="text/css">
	.st0{fill:#FBAF18;}
</style>
<g>
	<path class="st0" d="M250.4,17.8c51.7,0,103.3-0.1,155,0c21.9,0,40.9,7.8,56.9,22.8c14,13.1,22.5,29.3,25.6,48.2
		c0.7,4.3,1,8.7,1,13c0.1,99.2,0.1,198.5,0,297.7c0,22.5-8.3,42-24,58.2c-11.8,12.1-26,19.9-42.4,23.5c-5.6,1.2-11.3,1.9-17,1.9
		c-103.4,0-206.8,0.1-310.2-0.1c-21.8,0-40.7-7.9-56.7-22.7c-13.7-12.8-22.1-28.5-25.5-46.9c-0.9-4.9-1.3-9.8-1.3-14.8
		c0-98.9,0-197.8,0-296.6c0-39.6,27.5-73.7,66.1-82.3c5.7-1.3,11.5-1.9,17.3-1.9C146.9,17.8,198.7,17.8,250.4,17.8z M119.8,346.4
		c1.2,0.1,2.1,0.1,2.9,0.1c11.9,0,23.8,0,35.7,0c0.5,0,1,0,1.5,0c1.5-0.2,2.1-0.8,2.2-2.3c0-0.5,0-1,0-1.5c0-19.8,0-39.7,0-59.5
		c0-0.9,0.1-1.8,0.1-3c2.6,0,5-0.1,7.4,0c13.1,0.4,26.1,0.4,39.1-2c10.8-2,21.1-5.2,30.3-11.2c12.2-7.9,21.2-18.5,26.1-32.3
		c2.2-6.1,3.3-12.5,3.9-19c0.7-7.8,0.4-15.5-1.1-23.2c-4.7-23.5-18.5-39.5-40.4-48.7c-12.1-5.1-24.8-7.1-37.7-7.4
		c-9-0.2-17.9,0.1-26.9,0.2c-7.5,0.1-15,0.4-22.6,0.5c-5.6,0.1-11.1,0.2-16.7,0.2c-4.5,0-4.5,0-4.5,4.6c0,66.6,0,133.3,0,199.9
		c0,0.7-0.1,1.4,0,2C119.3,344.6,119.6,345.4,119.8,346.4z M292.2,301.4c-1.6,1.1-1.5,2.5-1.5,3.9c0,9.1,0,18.3,0,27.5
		c0,1.5,0,2.9,0,4.4c-0.1,2.5,0.9,4.3,3.3,5.2c1.3,0.5,2.5,1.1,3.8,1.6c7.8,3.1,15.9,4.6,24.1,5.7c10.5,1.4,21,1.5,31.5,0.5
		c8.7-0.8,17-2.8,24.9-6.5c12.2-5.7,21.1-14.6,25.5-27.6c2.5-7.4,3.1-15,2-22.8c-0.7-5.2-2.2-10.2-5-14.7c-3.8-6.3-8.8-11.3-15-15.2
		c-8.3-5.3-17.1-9.6-26.4-13c-5.9-2.1-11.6-4.6-17.1-7.5c-2.2-1.1-4.2-2.6-6.1-4.1c-2-1.6-3.5-3.8-3.7-6.5c-0.2-4.2,2.1-7.9,6.2-9.3
		c4.1-1.5,8.5-2.1,12.9-2c5.3,0.2,10.6,0.7,15.8,1.4c8.7,1.2,17.1,3.3,24.9,7.4c1.6,0.9,3.2,1,4.8,0.5c1-0.9,1-2,1-3.2
		c0-10.1,0-20.2,0-30.3c0-0.7-0.1-1.4-0.2-2c-0.1-1.6-1.1-2.7-2.6-3.1c-4.2-1.2-8.3-2.8-12.5-3.6c-12.2-2.2-24.5-3.2-37-2.3
		c-9.5,0.7-18.8,2.5-27.4,6.8c-7.7,3.8-14.1,8.9-19,16c-4.6,6.6-7.1,13.9-7.9,21.9c-1,10.6,1.1,20.4,7.2,29.2
		c3.7,5.2,8.2,9.6,13.5,13.2c8.2,5.4,16.9,9.7,26,13.1c5.3,2,10.4,4.3,15.5,6.7c3.1,1.4,5.9,3.4,8,6.3c1.8,2.5,2.2,5.1,1,8
		c-1,2.5-2.8,4.2-5.3,5.3c-4.2,1.9-8.7,2.4-13.3,2.5c-5.3,0.2-10.6-0.1-15.8-0.9c-11.9-1.8-23.3-5.1-33.9-11.1
		C293.8,302.2,293,301.9,292.2,301.4z"/>
	<path class="st0" d="M162.7,242.4c0-22.4,0-44.5,0-66.8c1.1-0.1,2-0.2,2.9-0.2c6.7-0.1,13.3-0.3,20-0.3c6.9,0,13.6,1,20.1,3.3
		c11.2,3.9,17.9,11.7,20,23.2c1.2,6.6,0.7,13.1-1.4,19.5c-2.4,7.2-7.7,12-14.1,15.6c-4.3,2.4-9,3.6-13.8,4.6
		c-5.3,1.1-10.6,1.7-16,1.6c-4.7-0.1-9.4,0-14.1-0.1C165,242.8,163.9,242.5,162.7,242.4z"/>
</g>
</svg>
